<?xml version="1.0" encoding="utf-8"?>
<!-- Generator: Adobe Illustrator 25.4.1, SVG Export Plug-In . SVG Version: 6.00 Build 0)  -->
<svg version="1.2" baseProfile="tiny"
	 id="svg2" xmlns:cc="http://creativecommons.org/ns#" xmlns:dc="http://purl.org/dc/elements/1.1/" xmlns:rdf="http://www.w3.org/1999/02/22-rdf-syntax-ns#" xmlns:svg="http://www.w3.org/2000/svg"
	 xmlns="http://www.w3.org/2000/svg" xmlns:xlink="http://www.w3.org/1999/xlink" x="0px" y="0px" width="136.1" height="49.1" viewBox="0 0 136.1 49.1"
	 overflow="visible" xml:space="preserve">
<g id="icon" transform="matrix(1.3333333,0,0,-1.3333333,-121.98615,688.78839)">
	<g id="g22" transform="translate(51.804618,-46.595696)">
		<g>
			<g id="g24">
				<g id="g30" transform="translate(106.9026,545.9287)">
					<path id="path32" fill="#76B82A" d="M0,0v-2.3h3.3v-2.1h-6.5v6.5h14v7.5H-7.9c-1.5,0-2.8-1.3-2.8-2.8V-9.1
						c0-1.5,1.3-2.8,2.8-2.8H7.9c1.5,0,2.8,1.3,2.8,2.8V0H0z"/>
				</g>
				<path id="path34" fill="#76B82A" d="M134.3,541.5h-6.5v6.5h6.5V541.5z M138.9,555.5h-15.9c-1.5,0-2.8-1.3-2.8-2.8v-15.9
					c0-1.5,1.3-2.8,2.8-2.8h15.9c1.5,0,2.8,1.3,2.8,2.8v15.9C141.7,554.2,140.5,555.5,138.9,555.5"/>
				<g id="g36" transform="translate(80.8078,541.493)">
					<path id="path38" fill="#76B82A" d="M0,0l5.3,8.1V0H0z M0.2,14L-15.3-9.8H-18l3.5-5.4L-3-9.8h-3.4l3.9,6.1h7.7v-3.7h7.5V14H0.2
						z"/>
				</g>
				<g id="g40" transform="translate(48.5686,534.0227)">
					<path id="path42" fill="#76B82A" d="M0,0l6.5,10V0h9l15.5,23.8h2.4l-3.5,5.4l-11.5-5.4h3.5l-8-12.3v9.9H5l-6.5-9.9v9.9h-7.5V0
						H0z"/>
				</g>
			</g>
		</g>
	</g>
</g>
</svg>
