<?xml version='1.0' encoding='utf-8'?>
<!-- Generator: Adobe Illustrator 24.1.0, SVG Export Plug-In . SVG Version: 6.00 Build 0)  -->
<svg xmlns="http://www.w3.org/2000/svg" height="0.7in" width="1.08429in" id="Layer_1" enable-background="new 0 0 78.0688 50.4" xmlns:xml="http://www.w3.org/XML/1998/namespace"  version="1.1" xml:space="preserve" y="0px" x="0px" viewBox="0 0 78.0688 50.4" gorn="0">
    <desc>
        <referenceFile>BMP280 rev C_breadboard.svg</referenceFile>
    </desc>
    <desc >Fritzing breadboard generated by brd2svg</desc>
    <g >
        <g id="icon"  gorn="0.1.0">
            <path d="M2.9725,7.2c0-3.9764,3.2235-7.2,7.2-7.2c0,0,0,0,0,0h57.6c3.9764,0,7.2,3.2236,7.2,7.2v36c0,3.9764-3.2235,7.2-7.2,7.2h-57.6c-3.9765,0-7.2-3.2235-7.2-7.2c0,0,0,0,0,0V7.2 M6.5725,43.2c-0.0007,1.9882,1.6106,3.6005,3.5988,3.6012s3.6005-1.6106,3.6012-3.5988c0-0.0008,0-0.0016,0-0.0024c0-1.9882-1.6118-3.6-3.6-3.6S6.5725,41.2118,6.5725,43.2z M64.1725,43.2c0,1.9882,1.6118,3.6,3.6,3.6c1.9882,0,3.6-1.6118,3.6-3.6l0,0c0-1.9882-1.6118-3.6-3.6-3.6C65.7842,39.6,64.1725,41.2118,64.1725,43.2z M15.9552,43.2c0,0.7828,0.6346,1.4173,1.4173,1.4173c0.7828,0,1.4173-0.6346,1.4173-1.4173s-0.6346-1.4173-1.4173-1.4173C16.5897,41.7827,15.9552,42.4172,15.9552,43.2z M23.1552,43.2c0,0.7828,0.6346,1.4173,1.4173,1.4173c0.7828,0,1.4173-0.6346,1.4173-1.4173s-0.6346-1.4173-1.4173-1.4173C23.7897,41.7827,23.1552,42.4172,23.1552,43.2z M30.3552,43.2c0,0.7828,0.6346,1.4173,1.4173,1.4173c0.7828,0,1.4173-0.6346,1.4173-1.4173s-0.6346-1.4173-1.4173-1.4173C30.9897,41.7827,30.3552,42.4172,30.3552,43.2z M37.5552,43.2c0,0.7828,0.6346,1.4173,1.4173,1.4173c0.7828,0,1.4173-0.6346,1.4173-1.4173s-0.6346-1.4173-1.4173-1.4173S37.5552,42.4172,37.5552,43.2z M44.7552,43.2c0,0.7828,0.6346,1.4173,1.4173,1.4173s1.4173-0.6346,1.4173-1.4173s-0.6346-1.4173-1.4173-1.4173S44.7552,42.4172,44.7552,43.2z M51.9552,43.2c0,0.7828,0.6346,1.4173,1.4173,1.4173c0.7828,0,1.4173-0.6346,1.4173-1.4173s-0.6346-1.4173-1.4173-1.4173S51.9552,42.4172,51.9552,43.2z M59.1552,43.2c0,0.7828,0.6346,1.4173,1.4173,1.4173s1.4173-0.6346,1.4173-1.4173s-0.6346-1.4173-1.4173-1.4173S59.1552,42.4172,59.1552,43.2z M6.6292,7.2c-0.0033,1.9569,1.5804,3.546,3.5373,3.5493s3.546-1.5804,3.5493-3.5373c0-0.004,0-0.008,0-0.012c0.0033-1.9569-1.5804-3.546-3.5374-3.5493c-1.9569-0.0033-3.546,1.5804-3.5493,3.5374C6.6292,7.1921,6.6292,7.196,6.6292,7.2z M64.2292,7.2c-0.0034,1.9569,1.5802,3.5461,3.5371,3.5495s3.5461-1.5802,3.5495-3.5371c0-0.0041,0-0.0083,0-0.0124c0.0034-1.9569-1.5802-3.5461-3.5371-3.5495c-1.9569-0.0034-3.5461,1.5802-3.5495,3.5371C64.2292,7.1917,64.2292,7.1958,64.2292,7.2z" />
            <g >
                <g >
                    <g  transform="matrix(1 0 0 1 14.1094 49.5504)">
                        <text font-family="'OCRA'" fill="#FFFFFF"  font-size="2.67264">VIN</text>
                    </g>
                </g>
                <g >
                    <g  transform="matrix(1 0 0 1 21.3094 40.1904)">
                        <text font-family="'OCRA'" fill="#FFFFFF"  font-size="2.67264">3Vo</text>
                    </g>
                </g>
                <g >
                    <g  transform="matrix(1 0 0 1 28.5094 49.5504)">
                        <text font-family="'OCRA'" fill="#FFFFFF"  font-size="2.67264">GND</text>
                    </g>
                </g>
                <g >
                    <g  transform="matrix(1 0 0 1 35.7094 40.1904)">
                        <text font-family="'OCRA'" fill="#FFFFFF"  font-size="2.67264">SCK</text>
                    </g>
                </g>
                <g >
                    <g  transform="matrix(1 0 0 1 49.7494 40.5504)">
                        <text font-family="'OCRA'" fill="#FFFFFF"  font-size="2.67264">SDI</text>
                    </g>
                </g>
                <g >
                    <g  transform="matrix(1 0 0 1 28.4656 6.0221)">
                        <text font-family="'OCRA'" fill="#FFFFFF"  font-size="3.87536">BMP280</text>
                    </g>
                </g>
                <g >
                    <g  transform="matrix(1 0 0 1 22.471 9.5904)">
                        <text font-family="'OCRA'" fill="#FFFFFF"  font-size="2.67264">Pressure</text>
                    </g>
                </g>
                <g >
                    <g  transform="matrix(1 0 0 1 3.6925 15.12)">
                        <text font-family="'OCRA'" fill="#FFFFFF"  font-size="2.67264">on</text>
                    </g>
                </g>
                <g >
                    <g  transform="matrix(1 0 0 1 43.6064 9.5904)">
                        <text font-family="'OCRA'" fill="#FFFFFF"  font-size="2.67264">Sensor</text>
                    </g>
                </g>
                <g >
                    <g  transform="matrix(1 0 0 1 58.5171 49.5504)">
                        <text font-family="'OCRA'" fill="#FFFFFF"  font-size="2.67264">CS</text>
                    </g>
                </g>
                <g >
                    <g  transform="matrix(1 0 0 1 42.9094 49.5504)">
                        <text font-family="'OCRA'" fill="#FFFFFF"  font-size="2.67264">SDO</text>
                    </g>
                </g>
                <g >
                    <g >
                        <line x1="32.9064" x2="30.6386" fill="none" stroke-width="0.864"  stroke-linecap="round" y1="25.128" y2="25.128" stroke="#FFFFFF"/>
                    </g>
                </g>
                <g >
                    <g >
                        <line x1="24.9325" x2="24.9325" fill="none" stroke-width="0.864"  stroke-linecap="round" y1="32.76" y2="35.64" stroke="#FFFFFF"/>
                    </g>
                </g>
                <g >
                    <g >
                        <line x1="26.0125" x2="26.0125" fill="none" stroke-width="0.864"  stroke-linecap="round" y1="14.4" y2="17.28" stroke="#FFFFFF"/>
                    </g>
                </g>
                <g >
                    <g >
                        <line x1="68.8667" x2="61.4966" fill="none" stroke-width="0.432"  stroke-linecap="round" y1="33.7039" y2="33.7039" stroke="#FFFFFF"/>
                        <line x1="61.4966" x2="61.4966" fill="none" stroke-width="0.432"  stroke-linecap="round" y1="33.7039" y2="30.5858" stroke="#FFFFFF"/>
                        <line x1="61.4966" x2="61.4966" fill="none" stroke-width="0.432"  stroke-linecap="round" y1="19.8142" y2="16.4126" stroke="#FFFFFF"/>
                        <line x1="61.4966" x2="68.8667" fill="none" stroke-width="0.432"  stroke-linecap="round" y1="16.4126" y2="16.4126" stroke="#FFFFFF"/>
                        <line x1="73.6856" x2="73.6856" fill="none" stroke-width="0.432"  stroke-linecap="round" y1="31.1527" y2="19.2473" stroke="#FFFFFF"/>
                    </g>
                </g>
                <g >
                    <g >
                        <line x1="9.0783" x2="16.4484" fill="none" stroke-width="0.432"  stroke-linecap="round" y1="16.6961" y2="16.6961" stroke="#FFFFFF"/>
                        <line x1="16.4484" x2="16.4484" fill="none" stroke-width="0.432"  stroke-linecap="round" y1="16.6961" y2="19.8142" stroke="#FFFFFF"/>
                        <line x1="16.4484" x2="16.4484" fill="none" stroke-width="0.432"  stroke-linecap="round" y1="30.5858" y2="33.9874" stroke="#FFFFFF"/>
                        <line x1="16.4484" x2="9.0783" fill="none" stroke-width="0.432"  stroke-linecap="round" y1="33.9874" y2="33.9874" stroke="#FFFFFF"/>
                        <line x1="4.2594" x2="4.2594" fill="none" stroke-width="0.432"  stroke-linecap="round" y1="19.2473" y2="31.1527" stroke="#FFFFFF"/>
                    </g>
                </g>
                <g >
                    <g >
                        <g >
                            <path d="M12.6565,14.76l0.9-0.72v1.44L12.6565,14.76" fill="none" stroke-width="0.432"  stroke-linecap="round" stroke="#FFFFFF"/>
                        </g>
                        <g  transform="matrix(0, -1, 1, 0, 9.504, 14.76)">
                            <g >
                                <g  transform="matrix(-2.535182e-06 -1 1 -2.535182e-06 -2.9725 2.9725)">
                                    <rect height="2.16" width="0.36" fill="#FFFFFF"  y="1.8925" x="-0.18"/>
                                </g>
                            </g>
                        </g>
                    </g>
                </g>
                <g >
                    <g >
                        <line x1="41.8071" x2="36.1379" fill="none" stroke-width="0.576"  stroke-linecap="round" y1="15.6642" y2="15.6642" stroke="#FFFFFF"/>
                        <line x1="36.1379" x2="41.8071" fill="none" stroke-width="0.576"  stroke-linecap="round" y1="11.6958" y2="11.6958" stroke="#FFFFFF"/>
                        <line x1="39.6812" x2="37.9803" fill="none" stroke-width="0.576"  stroke-linecap="round" y1="13.68" y2="14.8139" stroke="#FFFFFF"/>
                        <line x1="37.9803" x2="37.9803" fill="none" stroke-width="0.576"  stroke-linecap="round" y1="14.8139" y2="12.5461" stroke="#FFFFFF"/>
                        <line x1="37.9803" x2="39.6812" fill="none" stroke-width="0.576"  stroke-linecap="round" y1="12.5461" y2="13.68" stroke="#FFFFFF"/>
                        <g >
                            <path d="M39.256,13.68l-0.8504,0.5669v-1.1338L39.256,13.68" fill="none" stroke-width="0.576"  stroke-linecap="round" stroke="#FFFFFF"/>
                        </g>
                    </g>
                </g>
                <g >
                    <g >
                        <line x1="49.5769" x2="52.1281" fill="none" stroke-width="0.576"  stroke-linecap="round" y1="32.2781" y2="32.2781" stroke="#FFFFFF"/>
                        <line x1="49.5769" x2="52.1281" fill="none" stroke-width="0.576"  stroke-linecap="round" y1="26.0419" y2="26.0419" stroke="#FFFFFF"/>
                        <circle fill="none" stroke-width="0.576"  r="0.2835" cy="33.412" cx="51.8447" stroke="#FFFFFF"/>
                    </g>
                </g>
                <g >
                    <g >
                        <line x1="19.9464" x2="17.6786" fill="none" stroke-width="0.864"  stroke-linecap="round" y1="15.12" y2="15.12" stroke="#FFFFFF"/>
                    </g>
                </g>
                <g >
                    <g >
                        <line x1="46.1867" x2="46.1867" fill="none" stroke-width="0.576"  stroke-linecap="round" y1="21.9685" y2="14.0315" stroke="#FFFFFF"/>
                        <line x1="56.9583" x2="56.9583" fill="none" stroke-width="0.576"  stroke-linecap="round" y1="14.0315" y2="21.9685" stroke="#FFFFFF"/>
                    </g>
                </g>
                <g >
                    <g >
                        <line x1="39.1165" x2="39.1165" fill="none" stroke-width="0.864"  stroke-linecap="round" y1="32.8501" y2="35.1179" stroke="#FFFFFF"/>
                    </g>
                </g>
                <g >
                    <g >
                        <line x1="35.3725" x2="35.3725" fill="none" stroke-width="0.864"  stroke-linecap="round" y1="19.4939" y2="17.2261" stroke="#FFFFFF"/>
                    </g>
                </g>
                <g >
                    <g >
                        <circle fill="none" stroke-width="0.576"  r="5.6693" cy="7.2" cx="10.1725" stroke="#FFFFFF"/>
                    </g>
                </g>
                <g >
                    <g >
                        <circle fill="none" stroke-width="0.576"  r="5.6693" cy="7.2" cx="67.7725" stroke="#FFFFFF"/>
                    </g>
                </g>
                <g >
                    <g >
                        <line x1="35.1457" x2="42.7993" fill="none" stroke-width="0.36"  stroke-linecap="round" y1="21.3732" y2="21.3732" stroke="#FFFFFF"/>
                        <line x1="35.1457" x2="42.7993" fill="none" stroke-width="0.36"  stroke-linecap="round" y1="29.0268" y2="29.0268" stroke="#FFFFFF"/>
                        <line x1="42.0906" x2="35.8544" fill="none" stroke-width="0.36"  stroke-linecap="round" y1="29.0268" y2="29.0268" stroke="#FFFFFF"/>
                        <line x1="35.8544" x2="42.0906" fill="none" stroke-width="0.36"  stroke-linecap="round" y1="21.3732" y2="21.3732" stroke="#FFFFFF"/>
                        <circle fill="none" stroke-width="0.8504"  r="0.2835" cy="20.3811" cx="41.5237" stroke="#FFFFFF"/>
                    </g>
                </g>
                <g >
                    <g >
                        <line x1="20.6153" x2="20.6153" fill="none" stroke-width="0.576"  stroke-linecap="round" y1="22.9323" y2="27.4677" stroke="#FFFFFF"/>
                        <line x1="29.9697" x2="29.9697" fill="none" stroke-width="0.576"  stroke-linecap="round" y1="22.9323" y2="27.4677" stroke="#FFFFFF"/>
                        <line x1="24.1586" x2="26.4264" fill="none" stroke-width="0.576"  stroke-linecap="round" y1="22.2236" y2="22.2236" stroke="#FFFFFF"/>
                    </g>
                </g>
            </g>
            <g  transform="matrix(0, 1, -1, 0, 51.5185, -6.08145)">
                <g >
                    <g  transform="matrix(2.535182e-06 1 -1 2.535182e-06 48.546 -9.054)">
                        <rect height="3.0472" width="2.8347" id="connector5pin" fill="#9A916C"  y="18.2224" x="27.3827" gorn="0.1.0.2.0.0.0"/>
                    </g>
                </g>
            </g>
            <g  transform="matrix(0, 1, -1, 0, 56.3375, -1.26255)">
                <g >
                    <g  transform="matrix(2.535182e-06 1 -1 2.535182e-06 53.365 -4.235)">
                        <rect height="3.0472" width="2.8347" id="connector6pin" fill="#9A916C"  y="23.0414" x="27.3827" gorn="0.1.0.3.0.0.0"/>
                    </g>
                </g>
            </g>
            <rect height="4.252" width="3.515" id="connector7pin" fill="#9A916C"  y="32.074" x="20.4821" gorn="0.1.0.4"/>
            <rect height="4.252" width="3.515" id="connector8pin" fill="#9A916C"  y="32.074" x="25.8679" gorn="0.1.0.5"/>
            <rect height="4.252" width="3.515" id="connector9pin" fill="#9A916C"  y="13.714" x="21.5621" gorn="0.1.0.6"/>
            <rect height="4.252" width="3.515" id="connector10pin" fill="#9A916C"  y="13.714" x="26.9479" gorn="0.1.0.7"/>
            <g  transform="matrix(-1, 0, 0, -1, 115.348, 58.9039)">
                <g >
                    <rect height="1.7008" width="4.3937" fill="#9A916C"  y="28.6016" x="52.5044" gorn="0.1.0.8.0.0"/>
                </g>
            </g>
            <g  transform="matrix(-1, 0, 0, -1, 115.348, 53.2346)">
                <g >
                    <rect height="1.7008" width="4.3937" fill="#9A916C"  y="25.7669" x="52.5044" gorn="0.1.0.9.0.0"/>
                </g>
            </g>
            <g  transform="matrix(-1, 0, 0, -1, 115.348, 47.5654)">
                <g >
                    <rect height="1.7008" width="4.3937" fill="#9A916C"  y="22.9323" x="52.5044" gorn="0.1.0.10.0.0"/>
                </g>
            </g>
            <g  transform="matrix(-1, 0, 0, -1, 115.348, 41.8961)">
                <g >
                    <rect height="1.7008" width="4.3937" fill="#9A916C"  y="20.0976" x="52.5044" gorn="0.1.0.11.0.0"/>
                </g>
            </g>
            <g  transform="matrix(-1, 0, 0, -1, 137.457, 66.274)">
                <g >
                    <rect height="3.4016" width="5.1024" id="connector15pin" fill="#9A916C"  y="31.4362" x="63.2051" gorn="0.1.0.12.0.0"/>
                </g>
            </g>
            <g  transform="matrix(-1, 0, 0, -1, 137.457, 34.526)">
                <g >
                    <rect height="3.4016" width="5.1024" id="connector16pin" fill="#9A916C"  y="15.5622" x="63.2051" gorn="0.1.0.13.0.0"/>
                </g>
            </g>
            <rect height="1.7008" width="4.3937" fill="#9A916C"  y="20.0976" x="15.102" gorn="0.1.0.14"/>
            <rect height="1.7008" width="4.3937" fill="#9A916C"  y="22.9323" x="15.102" gorn="0.1.0.15"/>
            <rect height="1.7008" width="4.3937" fill="#9A916C"  y="25.7669" x="15.102" gorn="0.1.0.16"/>
            <rect height="1.7008" width="4.3937" fill="#9A916C"  y="28.6016" x="15.102" gorn="0.1.0.17"/>
            <rect height="3.4016" width="5.1024" id="connector21pin" fill="#9A916C"  y="15.5622" x="3.6925" gorn="0.1.0.18"/>
            <rect height="3.4016" width="5.1024" id="connector22pin" fill="#9A916C"  y="31.4362" x="3.6925" gorn="0.1.0.19"/>
            <g  transform="matrix(0, -1, 1, 0, -2.55401, 26.966)">
                <g >
                    <g  transform="matrix(-2.535182e-06 -1 1 -2.535182e-06 -5.5263 29.9385)">
                        <rect height="2.2677" width="2.2677" id="connector23pin" fill="#9A916C"  y="16.5986" x="11.0722" gorn="0.1.0.20.0.0.0"/>
                    </g>
                </g>
            </g>
            <g  transform="matrix(0, -1, 1, 0, -6.80599, 22.714)">
                <g >
                    <g  transform="matrix(-2.535182e-06 -1 1 -2.535182e-06 -9.7784 25.6865)">
                        <rect height="2.2677" width="2.2677" id="connector24pin" fill="#9A916C"  y="16.5986" x="6.8202" gorn="0.1.0.21.0.0.0"/>
                    </g>
                </g>
            </g>
            <g  transform="matrix(-1, 0, 0, -1, 64.8, 27.36)">
                <g >
                    <rect height="2.2677" width="3.8268" id="connector25pin" fill="#9A916C"  y="12.5461" x="27.5141" gorn="0.1.0.22.0.0"/>
                </g>
            </g>
            <g  transform="matrix(-1, 0, 0, -1, 79.2, 27.36)">
                <g >
                    <rect height="2.2677" width="3.8268" id="connector26pin" fill="#9A916C"  y="12.5461" x="34.7141" gorn="0.1.0.23.0.0"/>
                </g>
            </g>
            <path d="M5.8525,36.5627L5.8525,36.5627c0.7828,0,1.4173,0.6346,1.4173,1.4173v0c0,0.7828-0.6346,1.4173-1.4173,1.4173h0c-0.7828,0-1.4173-0.6346-1.4173-1.4173v0C4.4352,37.1973,5.0697,36.5627,5.8525,36.5627z" id="connector27pin" fill="#9A916C"  gorn="0.1.0.24"/>
            <path d="M58.7725,2.7947L58.7725,2.7947c0.7828,0,1.4173,0.6346,1.4173,1.4173v0c0,0.7828-0.6346,1.4173-1.4173,1.4173h0c-0.7828,0-1.4173-0.6346-1.4173-1.4173v0C57.3552,3.4292,57.9897,2.7947,58.7725,2.7947z" id="connector28pin" fill="#9A916C"  gorn="0.1.0.25"/>
            <circle id="connector29pin" fill="none" stroke-width="1.1027"  r="1.9687" cy="43.2" cx="17.3725" gorn="0.1.0.26" stroke="#9A916C"/>
            <circle id="connector30pin" fill="none" stroke-width="1.1027"  r="1.9687" cy="43.2" cx="24.5725" gorn="0.1.0.27" stroke="#9A916C"/>
            <circle id="connector31pin" fill="none" stroke-width="1.1027"  r="1.9687" cy="43.2" cx="31.7725" gorn="0.1.0.28" stroke="#9A916C"/>
            <circle id="connector32pin" fill="none" stroke-width="1.1027"  r="1.9687" cy="43.2" cx="38.9725" gorn="0.1.0.29" stroke="#9A916C"/>
            <circle id="connector33pin" fill="none" stroke-width="1.1027"  r="1.9687" cy="43.2" cx="46.1725" gorn="0.1.0.30" stroke="#9A916C"/>
            <circle id="connector34pin" fill="none" stroke-width="1.1027"  r="1.9687" cy="43.2" cx="53.3725" gorn="0.1.0.31" stroke="#9A916C"/>
            <circle id="connector35pin" fill="none" stroke-width="1.1027"  r="1.9687" cy="43.2" cx="60.5725" gorn="0.1.0.32" stroke="#9A916C"/>
            <g  transform="matrix(0, -1, 1, 0, 19.1452, 81.7171)">
                <g >
                    <g  transform="matrix(-2.535182e-06 -1 1 -2.535182e-06 16.173 84.6898)">
                        <rect height="1.4173" width="1.4173" id="connector36pin" fill="#9A916C"  y="33.5498" x="49.7226" gorn="0.1.0.33.0.0.0"/>
                    </g>
                </g>
            </g>
            <g  transform="matrix(0, -1, 1, 0, 21.2712, 79.591)">
                <g >
                    <g  transform="matrix(-2.535182e-06 -1 1 -2.535182e-06 18.2988 82.5636)">
                        <rect height="1.1339" width="1.4173" id="connector37pin" fill="#9A916C"  y="31.5655" x="49.7225" gorn="0.1.0.34.0.0.0"/>
                    </g>
                </g>
            </g>
            <g  transform="matrix(0, -1, 1, 0, 23.3972, 77.4655)">
                <g >
                    <g  transform="matrix(-2.535182e-06 -1 1 -2.535182e-06 20.4249 80.4379)">
                        <rect height="1.4173" width="1.4173" id="connector38pin" fill="#9A916C"  y="29.2979" x="49.7226" gorn="0.1.0.35.0.0.0"/>
                    </g>
                </g>
            </g>
            <g  transform="matrix(0, -1, 1, 0, 18.2948, 72.3629)">
                <g >
                    <g  transform="matrix(-2.535182e-06 -1 1 -2.535182e-06 15.3223 75.3354)">
                        <rect height="1.4173" width="1.4173" id="connector39pin" fill="#9A916C"  y="29.2979" x="44.6201" gorn="0.1.0.36.0.0.0"/>
                    </g>
                </g>
            </g>
            <g  transform="matrix(0, -1, 1, 0, 16.1688, 74.489)">
                <g >
                    <g  transform="matrix(-2.535182e-06 -1 1 -2.535182e-06 13.1965 77.4613)">
                        <rect height="1.1339" width="1.4173" id="connector40pin" fill="#9A916C"  y="31.5655" x="44.6202" gorn="0.1.0.37.0.0.0"/>
                    </g>
                </g>
            </g>
            <g  transform="matrix(0, -1, 1, 0, 14.0428, 76.6145)">
                <g >
                    <g  transform="matrix(-2.535182e-06 -1 1 -2.535182e-06 11.0704 79.5873)">
                        <rect height="1.4173" width="1.4173" id="connector41pin" fill="#9A916C"  y="33.5498" x="44.6201" gorn="0.1.0.38.0.0.0"/>
                    </g>
                </g>
            </g>
            <g  transform="matrix(0, 1, -1, 0, 28.5505, -3.12945)">
                <g >
                    <g  transform="matrix(2.535182e-06 1 -1 2.535182e-06 25.578 -6.102)">
                        <rect height="3.0472" width="2.8347" id="connector42pin" fill="#9A916C"  y="8.2144" x="14.4227" gorn="0.1.0.39.0.0.0"/>
                    </g>
                </g>
            </g>
            <g  transform="matrix(0, 1, -1, 0, 33.3695, 1.68945)">
                <g >
                    <g  transform="matrix(2.535182e-06 1 -1 2.535182e-06 30.397 -1.283)">
                        <rect height="3.0472" width="2.8347" id="connector43pin" fill="#9A916C"  y="13.0334" x="14.4227" gorn="0.1.0.40.0.0.0"/>
                    </g>
                </g>
            </g>
            <g  transform="matrix(-1, 0, 0, -1, 104.57, 31.1811)">
                <g >
                    <rect height="2.5512" width="1.2756" id="connector44pin" fill="#9A916C"  y="14.315" x="48.6748" gorn="0.1.0.41.0.0"/>
                </g>
            </g>
            <g  transform="matrix(-1, 0, 0, -1, 99.468, 31.1811)">
                <g >
                    <rect height="2.5512" width="1.2756" id="connector45pin" fill="#9A916C"  y="14.315" x="46.1236" gorn="0.1.0.42.0.0"/>
                </g>
            </g>
            <g  transform="matrix(-1, 0, 0, -1, 94.932, 31.1811)">
                <g >
                    <rect height="2.5512" width="1.2756" id="connector46pin" fill="#9A916C"  y="14.315" x="43.8559" gorn="0.1.0.43.0.0"/>
                </g>
            </g>
            <g  transform="matrix(-1, 0, 0, -1, 89.8301, 31.1811)">
                <g >
                    <rect height="2.5512" width="1.2756" id="connector47pin" fill="#9A916C"  y="14.315" x="41.3047" gorn="0.1.0.44.0.0"/>
                </g>
            </g>
            <g  transform="matrix(-1, 0, 0, -1, 89.8301, 40.8189)">
                <g >
                    <rect height="2.5512" width="1.2756" id="connector48pin" fill="#9A916C"  y="19.1339" x="41.3047" gorn="0.1.0.45.0.0"/>
                </g>
            </g>
            <g  transform="matrix(-1, 0, 0, -1, 94.932, 40.8189)">
                <g >
                    <rect height="2.5512" width="1.2756" id="connector49pin" fill="#9A916C"  y="19.1339" x="43.8559" gorn="0.1.0.46.0.0"/>
                </g>
            </g>
            <g  transform="matrix(-1, 0, 0, -1, 99.468, 40.8189)">
                <g >
                    <rect height="2.5512" width="1.2756" id="connector50pin" fill="#9A916C"  y="19.1339" x="46.1236" gorn="0.1.0.47.0.0"/>
                </g>
            </g>
            <g  transform="matrix(-1, 0, 0, -1, 104.57, 40.8189)">
                <g >
                    <rect height="2.5512" width="1.2756" id="connector51pin" fill="#9A916C"  y="19.1339" x="48.6748" gorn="0.1.0.48.0.0"/>
                </g>
            </g>
            <rect height="2.8347" width="3.0472" id="connector52pin" fill="#9A916C"  y="32.5667" x="35.1834" gorn="0.1.0.49"/>
            <rect height="2.8347" width="3.0472" id="connector53pin" fill="#9A916C"  y="32.5667" x="40.0023" gorn="0.1.0.50"/>
            <g  transform="matrix(-1, 0, 0, -1, 69.6189, 36.72)">
                <g >
                    <rect height="2.8347" width="3.0472" id="connector54pin" fill="#9A916C"  y="16.9427" x="30.3133" gorn="0.1.0.51.0.0"/>
                </g>
            </g>
            <g  transform="matrix(-1, 0, 0, -1, 59.9811, 36.72)">
                <g >
                    <rect height="2.8347" width="3.0472" id="connector55pin" fill="#9A916C"  y="16.9427" x="25.4944" gorn="0.1.0.52.0.0"/>
                </g>
            </g>
            <circle id="connector56pin" fill="none" stroke-width="1.44"  r="4.2633" cy="7.2" cx="10.1725" gorn="0.1.0.53" stroke="#9A916C"/>
            <circle id="connector57pin" fill="none" stroke-width="1.44"  r="4.2633" cy="7.2" cx="67.7725" gorn="0.1.0.54" stroke="#9A916C"/>
            <rect height="0.9921" width="2.0551" id="connector58pin" fill="#9A916C"  y="21.9401" x="40.567" gorn="0.1.0.55"/>
            <rect height="0.9921" width="2.0551" id="connector59pin" fill="#9A916C"  y="23.7827" x="40.567" gorn="0.1.0.56"/>
            <rect height="0.9921" width="2.0551" id="connector60pin" fill="#9A916C"  y="25.6252" x="40.567" gorn="0.1.0.57"/>
            <rect height="0.9921" width="2.0551" id="connector61pin" fill="#9A916C"  y="27.4677" x="40.567" gorn="0.1.0.58"/>
            <rect height="0.9921" width="2.0551" id="connector62pin" fill="#9A916C"  y="27.4677" x="35.3229" gorn="0.1.0.59"/>
            <rect height="0.9921" width="2.0551" id="connector63pin" fill="#9A916C"  y="25.6252" x="35.3229" gorn="0.1.0.60"/>
            <rect height="0.9921" width="2.0551" id="connector64pin" fill="#9A916C"  y="23.7827" x="35.3229" gorn="0.1.0.61"/>
            <rect height="0.9921" width="2.0551" id="connector65pin" fill="#9A916C"  y="21.9401" x="35.3229" gorn="0.1.0.62"/>
            <rect height="3.4016" width="1.559" id="connector66pin" fill="#9A916C"  y="27.1845" x="21.8201" gorn="0.1.0.63"/>
            <rect height="3.4016" width="1.559" id="connector67pin" fill="#9A916C"  y="27.1845" x="24.513" gorn="0.1.0.64"/>
            <rect height="3.4016" width="1.559" id="connector68pin" fill="#9A916C"  y="27.1845" x="27.2059" gorn="0.1.0.65"/>
            <rect height="3.4016" width="1.559" id="connector69pin" fill="#9A916C"  y="19.8139" x="27.2059" gorn="0.1.0.66"/>
            <rect height="3.4016" width="1.559" id="connector70pin" fill="#9A916C"  y="19.8139" x="21.8201" gorn="0.1.0.67"/>
        </g>
        <g  transform="matrix(1, 0, 0, 1, 26.5325, 23.994)">
            <g id="_x30_603-cap"  gorn="0.1.1.0">
                <g  transform="matrix(0, 1, -1, 0, 3.4015, -1.1335)">
                    <g >
                        <path d="M4.245-0.7045H0.29c-0.16,0-0.29-0.13-0.29-0.291v-1.687c0-0.16,0.13-0.29,0.29-0.29h3.955c0.16,0,0.29,0.13,0.29,0.29v1.687C4.535-0.8345,4.405-0.7045,4.245-0.7045z" fill="#DCDCDC" />
                        <g  transform="matrix(2.535182e-06 1 -1 2.535182e-06 0.4295 -4.1065)">
                            <rect height="2.268" width="2.268" fill="#6E554B"  y="-2.9725" x="1.134"/>
                        </g>
                    </g>
                </g>
            </g>
        </g>
        <g  transform="matrix(1, 0, 0, 1, 19.1255, 32.4285)">
            <g id="_x30_805-cap"  gorn="0.1.2.0">
                <path d="M8.3585,3.543h-5.103c-0.156,0-0.283-0.127-0.283-0.283V0.283C2.9725,0.127,3.0995,0,3.2555,0h5.102c0.157,0,0.283,0.127,0.283,0.283V3.26C8.6415,3.416,8.5145,3.543,8.3585,3.543z" fill="#DCDCDC" />
                <rect height="3.543" width="3.543" fill="#6E554B"  y="0" x="4.0355"/>
            </g>
        </g>
        <g  transform="matrix(1, 0, 0, 1, 20.2055, 14.0685)">
            <g id="_x30_805-cap_1_"  gorn="0.1.3.0">
                <path d="M8.3585,3.543h-5.103c-0.156,0-0.283-0.127-0.283-0.283V0.283C2.9725,0.127,3.0995,0,3.2555,0h5.102c0.157,0,0.283,0.127,0.283,0.283V3.26C8.6415,3.416,8.5145,3.543,8.3585,3.543z" fill="#DCDCDC" />
                <rect height="3.543" width="3.543" fill="#6E554B"  y="0" x="4.0355"/>
            </g>
        </g>
        <g  transform="matrix(1, 0, 0, 1, 54.5625, 16.0925)">
            <g id="jst_sh4"  gorn="0.1.4.0">
                <g  transform="matrix(0, -1, 1, 0, -0.291564, 17.9233)">
                    <g >
                        <path d="M1.8663,7.814l14.1872-0.017l0.0019,1.4315l1.4185-0.0017l0.0136,10.0208L0.4637,19.268L0.4501,9.2472l1.418-0.0017L1.8663,7.814z" id="polygon5" fill="#666666"  gorn="0.1.4.0.0.0.0"/>
                        <g  transform="matrix(-0.0068 -1 1 -0.0068 2.0079 27.4537)">
                            <rect height="1.4185" width="4.3718" id="rect7"  y="12.0205" x="12.4517" gorn="0.1.4.0.0.0.1.0"/>
                        </g>
                        <g  transform="matrix(-0.0068 -1 1 -0.0068 -9.4928 16.1857)">
                            <rect height="1.4185" width="4.3718" id="rect9"  y="12.0978" x="1.1056" gorn="0.1.4.0.0.0.2.0"/>
                        </g>
                        <g  transform="matrix(-0.0068 -1 1 -0.0068 4.9008 24.4978)">
                            <rect height="1.4185" width="1.4574" id="rect11" fill="#333333"  y="9.1059" x="13.8874" gorn="0.1.4.0.0.0.3.0"/>
                        </g>
                        <g  transform="matrix(-0.0068 -1 1 -0.0068 -6.5999 13.2298)">
                            <rect height="1.4185" width="1.4574" id="rect13" fill="#333333"  y="9.1832" x="2.5413" gorn="0.1.4.0.0.0.4.0"/>
                        </g>
                        <g  transform="matrix(-0.0068 -1 1 -0.0068 5.9946 20.503)">
                            <rect height="0.9927" width="3.6433" id="rect19" fill="#DCDCDC"  y="6.7782" x="11.3575" gorn="0.1.4.0.0.0.5.0"/>
                        </g>
                        <g  transform="matrix(-0.0068 -1 1 -0.0068 3.1196 17.6861)">
                            <rect height="0.9927" width="3.6433" id="rect21" fill="#DCDCDC"  y="6.7975" x="8.5211" gorn="0.1.4.0.0.0.6.0"/>
                        </g>
                        <g  transform="matrix(-0.0068 -1 1 -0.0068 3.1196 17.6861)">
                            <rect height="0.9927" width="3.6433" id="rect4164" fill="#DCDCDC"  y="6.7975" x="8.5211" gorn="0.1.4.0.0.0.7.0"/>
                        </g>
                        <g  transform="matrix(-0.0068 -1 1 -0.0068 0.2443 14.869)">
                            <rect height="0.9927" width="3.6433" id="rect4188" fill="#DCDCDC"  y="6.8168" x="5.6845" gorn="0.1.4.0.0.0.8.0"/>
                        </g>
                        <g  transform="matrix(-0.0068 -1 1 -0.0068 -2.6309 12.052)">
                            <rect height="0.9927" width="3.6433" id="rect4143" fill="#DCDCDC"  y="6.8362" x="2.848" gorn="0.1.4.0.0.0.9.0"/>
                        </g>
                        <path d="M0.4641,14.381c0-2.6862-0.0043-4.9385-0.0095-5.0052L0.4451,9.2546h0.7148h0.7148V8.5347V7.8148h1.1436h1.1436l0.0097,0.3416c0.0053,0.1879,0.0097,0.492,0.0097,0.6758l0,0.3342l0.2241,0c0.1232,0,0.348-0.0044,0.4995-0.0097l0.2755-0.0096V8.481V7.8148H6.089h0.9086l0.0096,0.2314C7.0125,8.1735,7.0169,8.471,7.0169,8.7073l0,0.4297l0.4996,0H8.016V8.4759V7.8148H8.927h0.9109L9.8397,7.925c0.001,0.0606,0.0035,0.1168,0.0055,0.1249s0.0045,0.2528,0.0055,0.5438l0.0018,0.5291l0.5007-0.0039L10.854,9.115l-0.0018-0.6501l-0.0018-0.6501h0.9099c0.8162,0,0.9108,0.0024,0.9188,0.0232c0.0049,0.0128,0.0089,0.3037,0.0089,0.6465v0.6232h0.3062c0.1684,0,0.3949-0.0042,0.5032-0.0094l0.197-0.0094l-0.0044-0.6444l-0.0044-0.6444h1.1834h1.1834V8.52v0.7199h0.7028h0.7028l0.0098,1.6553c0.0054,0.9104,0.0098,3.1616,0.0098,5.0027v3.3474l-3.2507,0c-1.7879,0-5.6159,0.0044-8.5068,0.0098l-5.2562,0.0098L0.4641,14.381z M4.0198,14.6944c0.0002-0.545-0.0289-4.2541-0.0384-4.9092L3.9721,9.1479L3.265,9.1586C2.876,9.1646,2.556,9.1711,2.5538,9.1732C2.5482,9.1784,2.5774,13.44,2.5888,14.3051l0.0092,0.6942h0.7108h0.7108L4.0198,14.6944L4.0198,14.6944z M15.3571,14.9063c0.0116-0.0116-0.0206-5.4879-0.0335-5.6931l-0.0086-0.1369l-0.7026,0.0047c-0.3864,0.0026-0.7058,0.008-0.7097,0.012c-0.0067,0.0069,0.0045,1.8862,0.0275,4.6263l0.0102,1.2104l0.7033-0.0067C15.0306,14.9193,15.3516,14.9118,15.3571,14.9063z" id="path594"  gorn="0.1.4.0.0.0.10"/>
                        <path d="M2.5597,10.5329c-0.005-0.0525-0.0091-0.3774-0.0091-0.722L2.5505,9.1844l0.0551-0.0071c0.0736-0.0095,0.4796-0.0168,0.9673-0.0176l0.398-0.0006L3.98,9.6807c0.005,0.2869,0.0051,0.6157,0.0001,0.7307l-0.009,0.2091l-0.7012,0.004l-0.7012,0.004L2.5597,10.5329z" id="path596"  gorn="0.1.4.0.0.0.11"/>
                        <path d="M13.9172,10.3469c-0.0053-0.1104-0.0096-0.4376-0.0096-0.7273l0.0001-0.5266l0.1065-0.0034c0.0586-0.0019,0.3759-0.0035,0.7052-0.0037l0.5986-0.0002l0.0016,0.0955c0.0009,0.0525,0.0026,0.3814,0.0038,0.7309l0.0022,0.6354l-0.6993,0l-0.6993,0L13.9172,10.3469z" id="path598"  gorn="0.1.4.0.0.0.12"/>
                        <g  transform="matrix(-2.535182e-06 -1 1 -2.535182e-06 -19.35 23.9535)">
                            <ellipse id="connector11pin"  cy="21.6517" cx="2.3017" ry="2.0127" gorn="0.1.4.0.0.0.13.0" rx="2.0127"/>
                        </g>
                        <g  transform="matrix(-2.535182e-06 -1 1 -2.535182e-06 -14.8146 28.4889)">
                            <ellipse id="connector12pin" fill="#FF0000"  cy="21.6517" cx="6.8372" ry="2.0127" gorn="0.1.4.0.0.0.14.0" rx="2.0127"/>
                        </g>
                        <g  transform="matrix(-2.535182e-06 -1 1 -2.535182e-06 -10.2791 33.0244)">
                            <ellipse id="connector13pin" fill="#0000FF"  cy="21.6517" cx="11.3726" ry="2.0127" gorn="0.1.4.0.0.0.15.0" rx="2.0127"/>
                        </g>
                        <g  transform="matrix(-2.535182e-06 -1 1 -2.535182e-06 -5.7437 37.5598)">
                            <ellipse id="connector14pin" fill="#FFFF00"  cy="21.6517" cx="15.908" ry="2.0127" gorn="0.1.4.0.0.0.16.0" rx="2.0127"/>
                        </g>
                    </g>
                </g>
            </g>
        </g>
        <g  transform="matrix(1, 0, 0, 1, -0.194322, 16.0925)">
            <g id="jst_sh4_1_"  gorn="0.1.5.0">
                <g  transform="matrix(0, 1, -1, 0, 17.9233, 0.291564)">
                    <g >
                        <path d="M1.7424,1.7452l14.1872-0.017l0.0019,1.4315L17.35,3.158l0.0136,10.0208L0.3398,13.1992L0.3262,3.1784l1.418-0.0017L1.7424,1.7452z" id="polygon5_1_" fill="#666666"  gorn="0.1.5.0.0.0.0"/>
                        <g  transform="matrix(0.0068 1 -1 0.0068 21.0756 -7.8978)">
                            <rect height="1.4185" width="4.3718" id="rect7_1_"  y="5.9517" x="12.3278" gorn="0.1.5.0.0.0.1.0"/>
                        </g>
                        <g  transform="matrix(0.0068 1 -1 0.0068 9.8841 3.5248)">
                            <rect height="1.4185" width="4.3718" id="rect9_1_"  y="6.029" x="0.9817" gorn="0.1.5.0.0.0.2.0"/>
                        </g>
                        <g  transform="matrix(0.0068 1 -1 0.0068 18.1398 -10.7711)">
                            <rect height="1.4185" width="1.4574" id="rect11_1_" fill="#333333"  y="3.0371" x="13.7635" gorn="0.1.5.0.0.0.3.0"/>
                        </g>
                        <g  transform="matrix(0.0068 1 -1 0.0068 6.9483 0.6515)">
                            <rect height="1.4185" width="1.4574" id="rect13_1_" fill="#333333"  y="3.1145" x="2.4174" gorn="0.1.5.0.0.0.4.0"/>
                        </g>
                        <g  transform="matrix(0.0068 1 -1 0.0068 14.172 -11.8575)">
                            <rect height="0.9927" width="3.6433" id="rect19_1_" fill="#DCDCDC"  y="0.7094" x="11.2336" gorn="0.1.5.0.0.0.5.0"/>
                        </g>
                        <g  transform="matrix(0.0068 1 -1 0.0068 11.3743 -9.002)">
                            <rect height="0.9927" width="3.6433" id="rect21_1_" fill="#DCDCDC"  y="0.7287" x="8.3973" gorn="0.1.5.0.0.0.6.0"/>
                        </g>
                        <g  transform="matrix(0.0068 1 -1 0.0068 11.3743 -9.002)">
                            <rect height="0.9927" width="3.6433" id="rect4164_1_" fill="#DCDCDC"  y="0.7287" x="8.3973" gorn="0.1.5.0.0.0.7.0"/>
                        </g>
                        <g  transform="matrix(0.0068 1 -1 0.0068 8.5764 -6.1462)">
                            <rect height="0.9927" width="3.6433" id="rect4188_1_" fill="#DCDCDC"  y="0.748" x="5.5607" gorn="0.1.5.0.0.0.8.0"/>
                        </g>
                        <g  transform="matrix(0.0068 1 -1 0.0068 5.7785 -3.2906)">
                            <rect height="0.9927" width="3.6433" id="rect4143_1_" fill="#DCDCDC"  y="0.7674" x="2.7241" gorn="0.1.5.0.0.0.9.0"/>
                        </g>
                        <path d="M0.3402,8.3122c0-2.6862-0.0043-4.9385-0.0095-5.0052L0.3213,3.1858H1.036h0.7148V2.4659V1.746h1.1436h1.1436l0.0097,0.3416c0.0053,0.1879,0.0097,0.492,0.0097,0.6758l0,0.3342l0.2241,0c0.1232,0,0.348-0.0044,0.4995-0.0097l0.2755-0.0096V2.4122V1.746h0.9086h0.9086l0.0096,0.2314C6.8887,2.1047,6.893,2.4022,6.893,2.6385l0,0.4297l0.4996,0h0.4995V2.4071V1.746h0.9109H9.714l0.0018,0.1102c0.001,0.0606,0.0035,0.1168,0.0055,0.1249c0.002,0.0081,0.0045,0.2528,0.0055,0.5438L9.7287,3.054l0.5007-0.0039l0.5007-0.0039l-0.0018-0.6501L10.7267,1.746h0.9099c0.8162,0,0.9108,0.0024,0.9188,0.0232c0.0049,0.0128,0.0089,0.3037,0.0089,0.6465v0.6232h0.3062c0.1684,0,0.3949-0.0042,0.5032-0.0094l0.197-0.0094l-0.0044-0.6444l-0.0044-0.6444h1.1834h1.1834v0.7199v0.7199h0.7028h0.7028l0.0098,1.6553c0.0054,0.9104,0.0098,3.1616,0.0098,5.0027v3.3474l-3.2507,0c-1.7879,0-5.6159,0.0044-8.5068,0.0098l-5.2562,0.0098L0.3402,8.3122z M3.8959,8.6256c0.0002-0.545-0.0289-4.2541-0.0384-4.9092L3.8482,3.0791L3.1411,3.0898c-0.3889,0.0059-0.709,0.0125-0.7112,0.0146C2.4244,3.1096,2.4535,7.3712,2.465,8.2363l0.0092,0.6942H3.185h0.7108L3.8959,8.6256L3.8959,8.6256z M15.2332,8.8375c0.0116-0.0116-0.0206-5.4879-0.0335-5.6931l-0.0086-0.1369l-0.7026,0.0047c-0.3864,0.0026-0.7058,0.008-0.7097,0.012c-0.0067,0.0069,0.0045,1.8862,0.0275,4.6263l0.0102,1.2104l0.7033-0.0067C14.9067,8.8505,15.2277,8.843,15.2332,8.8375z" id="path594_1_"  gorn="0.1.5.0.0.0.10"/>
                        <path d="M2.4359,4.4641c-0.005-0.0525-0.0091-0.3774-0.0091-0.722L2.4266,3.1156l0.0551-0.0071C2.5553,3.0991,2.9613,3.0917,3.449,3.0909l0.398-0.0006l0.0091,0.5216c0.005,0.2869,0.0051,0.6157,0.0001,0.7307l-0.009,0.2091l-0.7012,0.004l-0.7012,0.004L2.4359,4.4641z" id="path596_1_"  gorn="0.1.5.0.0.0.11"/>
                        <path d="M13.7933,4.2781c-0.0053-0.1104-0.0096-0.4376-0.0096-0.7273l0.0001-0.5266l0.1065-0.0034c0.0586-0.0019,0.3759-0.0035,0.7052-0.0037l0.5986-0.0002l0.0016,0.0955c0.0009,0.0525,0.0026,0.3814,0.0038,0.7309l0.0022,0.6354l-0.6993,0l-0.6993,0L13.7933,4.2781z" id="path598_1_"  gorn="0.1.5.0.0.0.12"/>
                        <g  transform="matrix(2.535182e-06 1 -1 2.535182e-06 17.7608 13.405)">
                            <ellipse id="connector17pin"  cy="15.5829" cx="2.1779" ry="2.0127" gorn="0.1.5.0.0.0.13.0" rx="2.0127"/>
                        </g>
                        <g  transform="matrix(2.535182e-06 1 -1 2.535182e-06 22.2962 8.8696)">
                            <ellipse id="connector18pin" fill="#FF0000"  cy="15.5829" cx="6.7133" ry="2.0127" gorn="0.1.5.0.0.0.14.0" rx="2.0127"/>
                        </g>
                        <g  transform="matrix(2.535182e-06 1 -1 2.535182e-06 26.8316 4.3342)">
                            <ellipse id="connector19pin" fill="#0000FF"  cy="15.5829" cx="11.2487" ry="2.0127" gorn="0.1.5.0.0.0.15.0" rx="2.0127"/>
                        </g>
                        <g  transform="matrix(2.535182e-06 1 -1 2.535182e-06 31.367 -0.2012)">
                            <ellipse id="connector20pin" fill="#FFFF00"  cy="15.5829" cx="15.7841" ry="2.0127" gorn="0.1.5.0.0.0.16.0" rx="2.0127"/>
                        </g>
                    </g>
                </g>
            </g>
        </g>
        <g  transform="matrix(1, 0, 0, 1, 8.946, 12.4925)">
            <g id="_x30_603-led-green"  gorn="0.1.6.0">
                <g  transform="matrix(0, -1, 1, 0, -1.1335, 3.4015)">
                    <g >
                        <path d="M2.268,3.2625v3.955c0,0.16-0.13,0.29-0.29,0.29H0.29c-0.16,0-0.29-0.13-0.29-0.29v-3.955c0-0.16,0.13-0.29,0.29-0.29h1.687C2.138,2.9725,2.268,3.1025,2.268,3.2625z" fill="#DCDCDC" />
                        <g  transform="matrix(-2.535182e-06 -1 1 -2.535182e-06 -4.106 6.3742)">
                            <rect height="2.268" width="2.268" fill="#00FF00"  y="4.1061" x="0.0001"/>
                        </g>
                        <circle fill="#00B400"  r="0.354" cy="5.2405" cx="1.134"/>
                    </g>
                </g>
            </g>
        </g>
        <g  transform="matrix(1, 0, 0, 1, 32.4565, 11.9085)">
            <g id="sod-323"  gorn="0.1.7.0">
                <g  transform="matrix(-1, 0, 0, -1, 7.087, 3.543)">
                    <g >
                        <rect height="0.85" width="7.087" id="rect3" fill="#DCDCDC"  y="1.346" x="-2.9725" gorn="0.1.7.0.0.0.0"/>
                        <rect height="3.543" width="4.819" id="rect5" fill="#303030"  y="0" x="-1.8385" gorn="0.1.7.0.0.0.1"/>
                        <rect height="3.5557" width="0.6332" id="rect3339" fill="#666666"  y="0.0117" x="-1.4138" gorn="0.1.7.0.0.0.2"/>
                    </g>
                </g>
            </g>
        </g>
        <g  transform="matrix(1, 0, 0, 1, 44.3365, 26.8921)">
            <g id="sot363"  gorn="0.1.8.0">
                <g  transform="matrix(0, -1, 1, 0, 0.567, 6.52)">
                    <g >
                        <g >
                            <g  transform="matrix(-2.535182e-06 -1 1 -2.535182e-06 -1.6965 10.2015)">
                                <rect height="0.709" width="5.953" fill="#DCDCDC"  y="5.5945" x="1.276"/>
                            </g>
                            <g  transform="matrix(-2.535182e-06 -1 1 -2.535182e-06 0.1465 12.0445)">
                                <rect height="0.709" width="5.953" fill="#DCDCDC"  y="5.5945" x="3.119"/>
                            </g>
                            <g  transform="matrix(-2.535182e-06 -1 1 -2.535182e-06 -3.5385 8.3595)">
                                <rect height="0.709" width="5.953" fill="#DCDCDC"  y="5.5945" x="-0.566"/>
                            </g>
                            <g  transform="matrix(-2.535182e-06 -1 1 -2.535182e-06 -1.6965 10.2015)">
                                <rect height="5.669" width="3.543" fill="#303030"  y="3.1145" x="2.481"/>
                            </g>
                        </g>
                    </g>
                </g>
            </g>
        </g>
        <g  transform="matrix(1, 0, 0, 1, 13.5725, 13.986)">
            <g id="_x30_603-res"  gorn="0.1.9.0">
                <g  transform="matrix(0, 1, -1, 0, 3.4015, -1.1335)">
                    <g >
                        <path d="M4.245-0.7045H0.29c-0.16,0-0.29-0.13-0.29-0.291v-1.687c0-0.16,0.13-0.29,0.29-0.29h3.955c0.16,0,0.29,0.13,0.29,0.29v1.687C4.535-0.8345,4.405-0.7045,4.245-0.7045z" fill="#DCDCDC" />
                        <g  transform="matrix(2.535182e-06 1 -1 2.535182e-06 0.4295 -4.1065)">
                            <rect height="2.268" width="2.268" fill="#333333"  y="-2.9725" x="1.134"/>
                        </g>
                    </g>
                </g>
            </g>
        </g>
        <g  transform="matrix(1, 0, 0, 1, 44.0645, 15.7325)">
            <g id="respack_4x0603"  gorn="0.1.10.0">
                <g  transform="matrix(-1, 0, 0, -1, 9.07099, 4.535)">
                    <g >
                        <g >
                            <rect height="4.535" width="1.843" fill="#DCDCDC"  y="0" x="-2.9725"/>
                            <rect height="4.535" width="1.417" fill="#DCDCDC"  y="0" x="-0.2795"/>
                            <rect height="4.535" width="1.417" fill="#DCDCDC"  y="0" x="1.9885"/>
                            <rect height="4.535" width="1.843" fill="#DCDCDC"  y="0" x="4.2555"/>
                            <rect height="2.835" width="9.071" fill="#303030"  y="0.85" x="-2.9725"/>
                        </g>
                    </g>
                </g>
            </g>
        </g>
        <g  transform="matrix(1, 0, 0, 1, 33.8765, 32.85)">
            <g id="_x30_603-res_1_"  gorn="0.1.11.0">
                <path d="M7.2175,2.268h-3.955c-0.16,0-0.29-0.13-0.29-0.291V0.29c0-0.16,0.13-0.29,0.29-0.29h3.955c0.16,0,0.29,0.13,0.29,0.29v1.687C7.5075,2.138,7.3775,2.268,7.2175,2.268z" fill="#DCDCDC" />
                <rect height="2.268" width="2.268" fill="#333333"  y="0" x="4.1065"/>
            </g>
        </g>
        <g  transform="matrix(1, 0, 0, 1, 30.1325, 17.226)">
            <g id="_x30_603-res_2_"  gorn="0.1.12.0">
                <g  transform="matrix(-1, 0, 0, -1, 4.535, 2.268)">
                    <g >
                        <path d="M1.2725,2.268h-3.955c-0.16,0-0.29-0.13-0.29-0.291V0.29c0-0.16,0.13-0.29,0.29-0.29h3.955c0.16,0,0.29,0.13,0.29,0.29v1.687C1.5625,2.138,1.4325,2.268,1.2725,2.268z" fill="#DCDCDC" />
                        <rect height="2.268" width="2.268" fill="#333333"  y="0" x="-1.8385"/>
                    </g>
                </g>
            </g>
        </g>
        <g  transform="matrix(1, 0, 0, 1, 10.4448, 0.663566)">
            <g id="adafruit_2.5mm"  gorn="0.1.13.0">
                <path d="M12.7195,3.082c-0.023-0.142-0.1-0.183-0.286-0.243c-0.142-0.045-1.089-0.347-1.089-0.347s-0.66-0.249-1.15,0.103c-0.066,0.048-0.134,0.102-0.203,0.16c0.058-0.069,0.112-0.137,0.159-0.203c0.352-0.49,0.101-1.15,0.101-1.15s-0.303-0.947-0.349-1.089c-0.06-0.186-0.1-0.263-0.243-0.285c-0.142-0.023-0.204,0.038-0.318,0.197c-0.087,0.12-0.667,0.928-0.667,0.928s-0.441,0.551-0.257,1.126c0.025,0.077,0.055,0.159,0.089,0.242c-0.048-0.076-0.096-0.149-0.144-0.214c-0.358-0.486-1.062-0.452-1.062-0.452s-0.995-0.004-1.143-0.004c-0.195,0-0.281,0.014-0.347,0.143c-0.065,0.128-0.027,0.206,0.089,0.364c0.088,0.12,0.677,0.921,0.677,0.921s0.388,0.59,0.991,0.592c0.081,0,0.168-0.003,0.257-0.01c-0.087,0.022-0.171,0.046-0.248,0.071c-0.573,0.19-0.758,0.871-0.758,0.871s-0.31,0.944-0.357,1.085c-0.061,0.186-0.073,0.272,0.029,0.374c0.102,0.102,0.188,0.09,0.374,0.028c0.141-0.046,1.085-0.359,1.085-0.359s0.681-0.187,0.869-0.76c0.025-0.077,0.049-0.16,0.07-0.247c-0.006,0.09-0.009,0.176-0.009,0.257c0.004,0.603,0.594,0.99,0.594,0.99s0.802,0.588,0.922,0.675c0.158,0.116,0.236,0.154,0.365,0.089c0.1279-0.066,0.143-0.152,0.142-0.347c-0.001-0.149-0.006-1.143-0.006-1.143s0.033-0.705-0.454-1.062c-0.065-0.048-0.138-0.096-0.214-0.143c0.083,0.034,0.165,0.064,0.242,0.088c0.575,0.183,1.125-0.259,1.125-0.259s0.807-0.581,0.927-0.668C12.6815,3.286,12.7415,3.224,12.7195,3.082z M9.2945,2.35c0.108,0.017,0.162,0.248,0.12,0.515s-0.164,0.47-0.273,0.453c-0.108-0.017-0.162-0.248-0.12-0.515C9.0635,2.535,9.1855,2.332,9.2945,2.35z M7.9055,3.059c0.05-0.098,0.286-0.078,0.527,0.045s0.397,0.302,0.347,0.399c-0.05,0.098-0.286,0.078-0.527-0.045C8.0105,3.335,7.8555,3.157,7.9055,3.059z M8.6375,4.393c-0.191,0.191-0.409,0.284-0.487,0.206c-0.077-0.078,0.015-0.296,0.206-0.487c0.191-0.192,0.409-0.285,0.487-0.207S8.8295,4.201,8.6375,4.393z M9.6915,4.842c-0.098,0.05-0.277-0.105-0.4-0.346c-0.123-0.242-0.144-0.478-0.046-0.528c0.098-0.05,0.277,0.105,0.4,0.346C9.7685,4.556,9.7895,4.792,9.6915,4.842z M9.9455,3.725c-0.267,0.042-0.498-0.011-0.516-0.119c-0.017-0.109,0.186-0.231,0.453-0.274c0.267-0.043,0.498,0.011,0.515,0.119C10.4155,3.56,10.2125,3.682,9.9455,3.725z" fill="#DCDCDC" />
            </g>
        </g>
        <g  transform="matrix(1, 0, 0, 1, 32.4374, 20.85)">
            <g id="bmx280_combo"  gorn="0.1.14.0">
                <g >
                    <g >
                        <rect height="0.5926" width="7.0942" fill="#DCDCDC"  y="6.801" x="2.9869"/>
                        <rect height="0.5926" width="7.0942" fill="#DCDCDC"  y="4.9492" x="2.9868"/>
                        <rect height="0.5926" width="7.0942" fill="#DCDCDC"  y="3.0974" x="2.9868"/>
                        <rect height="0.5926" width="7.0942" fill="#DCDCDC"  y="1.2455" x="2.9868"/>
                        <rect height="7.1482" width="4.6097" fill="#333333"  y="0.7455" x="4.2291"/>
                    </g>
                    <circle fill="#898989"  r="0.5436" cy="6.9881" cx="5.2238"/>
                </g>
            </g>
        </g>
        <g  transform="matrix(1, 0, 0, 1, 18.21, 21.373)">
            <g id="sot23-5"  gorn="0.1.15.0">
                <g >
                    <rect height="7.654" width="1.134" fill="#DCDCDC"  y="0" x="3.8225"/>
                    <rect height="7.654" width="1.134" fill="#DCDCDC"  y="0" x="9.2085"/>
                    <rect height="3.118" width="1.134" fill="#DCDCDC"  y="4.535" x="6.5155"/>
                    <rect height="4.535" width="8.22" fill="#303030"  y="1.559" x="2.9725"/>
                </g>
            </g>
        </g>
    </g>
</svg>
