<?xml version='1.0' encoding='UTF-8' standalone='no'?>
<svg
  xmlns:dc="http://purl.org/dc/elements/1.1/"
  xmlns:cc="http://creativecommons.org/ns#"
  xmlns:rdf="http://www.w3.org/1999/02/22-rdf-syntax-ns#"
  xmlns:svg="http://www.w3.org/2000/svg"
  xmlns="http://www.w3.org/2000/svg"
  width="45.700001mm"
  height="25.4mm"
  viewBox="0 0 1799.2132 1000.0003"
  version="1.1"
  id="svg370">
  <metadata
    id="metadata376">
    <rdf:RDF>
      <cc:Work
        rdf:about="">
        <dc:format>image/svg+xml</dc:format>
        <dc:type
          rdf:resource="http://purl.org/dc/dcmitype/StillImage"
        />
        <dc:title/>
      </cc:Work>
    </rdf:RDF>
  </metadata>
  <defs
    id="defs374"
  />
  <desc
    id="desc2">
    <referenceFile>MW-IRM-05-05_e0fc7aefca45b34401679ad6a8a92299_21_breadboard.svg</referenceFile>
  </desc>
  <g
    id="breadboard">
    <rect
      width="1799.2194"
      y="-0.0004895333"
      fill-rule="evenodd"
      height="1000.0352"
      stroke-width="2.52762"
      fill="#343434"
      ry="45.563663"
      x="0.0050030896"
      id="rect4"
    />
    <path
      d="M 78.744638,78.815088 V 920.23962 H 1645.6539 l 73.2552,-78.9799 2.7327,-763.126114 z"
      fill="#000000"
      id="path6"
      stroke-width="9.51426"
    />
    <path
      d="m 683.16969,776.22472 v 36.75587 c 0,0 -116.31747,7.08789 -116.31747,-110.76737 0,-117.8553 118.25747,-109.76777 118.25747,-109.76777 v 37.74973 c 0,0 -81.7603,-2.1378 -81.7603,70.533 0,72.58894 79.81368,75.49942 79.81368,75.49942 z"
      fill="#ffffff"
      id="path8"
      stroke-width="9.51426"
    />
    <path
      d="m 865.87215,778.24323 v 36.75587 c 0,0 -122.2694,7.0878 -122.2694,-110.76742 0,-117.85132 120.32936,-109.76773 120.32936,-109.76773 v 37.74973 c -18.00656,0 -79.83911,13.50856 -79.83911,52.43668 l 63.27629,-0.52205 v 38.48698 l -62.09531,0.69213 c 24.06869,58.70747 80.60569,54.93963 80.60569,54.93963 z"
      fill="#ffffff"
      id="path10"
      stroke-width="9.51426"
    />
    <rect
      width="309.04752"
      y="143.80128"
      fill-rule="evenodd"
      height="185.76901"
      stroke-width="1.1217"
      fill="#dd251b"
      x="426.72507"
      id="rect16"
    />
    <path
      d="m 436.04131,259.11829 60.12335,-106.28405 h 19.4638 v 69.10284 l 38.70607,-68.42184 h 18.32825 V 260.00917 H 552.4948 v -67.28682 l -37.62591,66.51159 h -19.19187 v -67.471 l -38.07155,67.30396 z"
      fill="#fffefd"
      id="path18"
      stroke-width="4.23957"
    />
    <path
      d="M 724.46722,154.40184 664.34387,260.68589 H 644.88003 V 191.58305 L 606.174,260.00489 H 587.84575 V 153.51096 h 20.16798 v 67.28682 l 37.62587,-66.51159 h 19.19191 v 67.471 l 38.07155,-67.30396 z"
      fill="#fffefd"
      id="path20"
      stroke-width="4.23957"
    />
    <rect
      width="285.33307"
      y="268.75946"
      fill-rule="evenodd"
      height="50.390167"
      stroke-width="1.08206"
      fill="#ffffff"
      x="438.18152"
      id="rect22"
    />
    <path
      d="m 481.73684,311.45507 h -5.98839 v -19.9164 l -5.39776,19.9164 h -6.11659 l -5.39236,-19.60412 v 19.60412 h -6.90222 v -33.52651 h 10.58911 l 4.75292,19.98253 5.16725,-19.87193 h 9.28804 z"
      id="path24"
      fill="#dd251b"
      stroke-width="1.07329"
    />
    <path
      d="m 512.64168,311.33579 h -24.6527 v -33.13833 h 22.97199 v 6.07988 H 494.1402 v 6.51848 h 15.58203 v 5.91387 h -15.96132 v 8.71245 h 18.88077 z"
      id="path26"
      fill="#dd251b"
      stroke-width="1.07329"
    />
    <path
      d="m 544.1096,311.47676 h -6.93092 l -3.15008,-7.61926 h -11.12958 l -3.15001,7.61926 h -6.72933 l 11.08918,-33.50049 h 8.91163 z m -11.95612,-13.72181 -3.68977,-10.31395 -3.68977,10.31395 z"
      stroke-width="1.1189"
      id="path28"
      fill="#dd251b"
    />
    <path
      d="m 572.06101,311.24905 h -6.87226 l -11.73832,-18.77571 v 18.88631 h -6.53796 v -33.46254 h 6.0719 l 12.15584,20.80227 -0.15354,-20.80227 h 7.07465 z"
      stroke-width="1.13178"
      id="path30"
      fill="#dd251b"
    />
    <path
      d="m 629.05808,278.21047 -6.60973,33.34435 h -6.45867 l -5.87563,-21.05057 -5.90277,21.05057 h -6.00788 l -7.12788,-33.34435 h 6.99922 l 3.97493,20.41626 4.53969,-20.57348 h 7.41737 l 5.05461,22.45149 3.95792,-22.29427 z"
      id="path32"
      fill="#dd251b"
      stroke-width="1.07329"
    />
    <path
      d="m 656.2552,311.5635 h -22.70109 v -33.41483 h 21.61641 v 5.69257 h -15.84549 v 6.85049 H 654.31 v 6.13517 h -14.87663 v 8.71256 h 16.82077 z"
      id="path34"
      fill="#dd251b"
      stroke-width="1.07329"
    />
    <path
      d="m 682.83614,311.47676 h -21.44959 v -33.18713 h 7.00304 v 27.49456 h 14.44742 z"
      id="path36"
      fill="#dd251b"
      stroke-width="1.07329"
    />
    <path
      d="m 708.68405,311.47676 h -21.4496 v -33.18713 h 7.00304 v 27.49456 h 14.44738 z"
      id="path38"
      fill="#dd251b"
      stroke-width="1.07329"
    />
    <rect
      width="90.352966"
      y="661.74725"
      height="94.281067"
      stroke-width="9.32104"
      fill="none"
      stroke="#f6f6f6"
      x="432.18924"
      id="rect56"
    />
    <rect
      width="46.15498"
      y="684.81567"
      height="48.16132"
      stroke-width="9.32104"
      fill="none"
      stroke="#f6f6f6"
      x="454.32065"
      id="rect58"
    />
    <path
      d="m 166.23436,800.9357 -5.4251,-15.36116 h -18.47944 l -5.49293,15.36116 h -6.37457 l 18.20829,-49.77994 h 5.76417 l 18.2416,49.77994 z m -7.42565,-20.95668 -5.01829,-14.37738 q -0.20355,-0.61102 -0.50898,-1.49213 -0.27126,-0.88189 -0.57654,-1.89882 -0.30551,-1.01732 -0.61078,-2.10236 -0.30552,-1.1193 -0.57654,-2.17009 -0.23701,1.05119 -0.54228,2.17009 -0.30552,1.11889 -0.60985,2.17008 -0.30551,1.01732 -0.61078,1.89921 -0.27127,0.84764 -0.47473,1.42441 l -4.9165,14.37738 z"
      font-feature-settings="normal"
      font-variant-caps="normal"
      font-variant-ligatures="normal"
      font-variant-numeric="normal"
      id="path60"
      fill="#fafafa"
      stroke-width="10.417"
    />
    <path
      d="m 198.86639,756.21749 q -3.62803,0 -6.57797,1.39056 -2.94992,1.3563 -5.05216,3.93347 -2.06827,2.57717 -3.22114,6.27327 -1.1189,3.69607 -1.1189,8.34186 0,4.78123 0.98334,8.51131 1.01721,3.69607 3.01765,6.23942 2.00055,2.54331 4.98433,3.86575 2.98386,1.32244 6.98487,1.32244 3.01776,0 5.7303,-0.57677 2.71256,-0.61063 5.35736,-1.39016 v 5.49351 q -1.3224,0.50906 -2.6448,0.91536 -1.32233,0.37401 -2.7804,0.61102 -1.4241,0.23622 -3.08548,0.33859 -1.6276,0.13779 -3.62803,0.13779 -5.56077,0 -9.62979,-1.8311 -4.06882,-1.83111 -6.7475,-5.18824 -2.64481,-3.35709 -3.93327,-8.0706 -1.28843,-4.71339 -1.28843,-10.44411 0,-5.62906 1.45799,-10.30894 1.49194,-4.67966 4.34016,-8.03667 2.88209,-3.35709 7.12044,-5.22213 4.23836,-1.86496 9.73158,-1.86496 3.66201,0 6.98487,0.74606 3.32284,0.74606 6.00154,2.17048 l -2.64472,5.28996 q -2.13623,-1.08504 -4.64527,-1.86496 -2.50913,-0.78032 -5.69643,-0.78032 z"
      font-feature-settings="normal"
      font-variant-caps="normal"
      font-variant-ligatures="normal"
      font-variant-numeric="normal"
      id="path62"
      fill="#fafafa"
      stroke-width="10.417"
    />
    <path
      d="m 239.1094,751.36509 -18.44518,49.57632 h -6.06937 l 18.47944,-49.57632 z"
      font-feature-settings="normal"
      font-variant-caps="normal"
      font-variant-ligatures="normal"
      font-variant-numeric="normal"
      id="path64"
      fill="#fafafa"
      stroke-width="10.417"
    />
    <path
      d="m 246.5301,800.9357 v -49.57632 h 6.30674 v 43.94753 h 19.4289 v 5.62898 z"
      font-feature-settings="normal"
      font-variant-caps="normal"
      font-variant-ligatures="normal"
      font-variant-numeric="normal"
      id="path66"
      fill="#fafafa"
      stroke-width="10.417"
    />
    <path
      d="m 160.14558,395.04635 -5.4251,-15.36117 h -18.47944 l -5.49293,15.36117 h -6.37448 l 18.2083,-49.77994 h 5.76426 l 18.2416,49.77994 z m -7.42564,-20.95666 -5.0182,-14.37739 q -0.20355,-0.61035 -0.50898,-1.49205 -0.27126,-0.88169 -0.57654,-1.8989 -0.30551,-1.01728 -0.61078,-2.1024 -0.30552,-1.11902 -0.57654,-2.17028 -0.23701,1.05114 -0.54228,2.17028 -0.30552,1.11902 -0.61079,2.17024 -0.30551,1.01728 -0.60985,1.8989 -0.27126,0.84775 -0.47472,1.42421 l -4.91657,14.37739 z"
      font-feature-settings="normal"
      font-variant-caps="normal"
      font-variant-ligatures="normal"
      font-variant-numeric="normal"
      id="path76"
      fill="#fafafa"
      stroke-width="10.417"
    />
    <path
      d="m 192.77762,350.3091 q -3.62808,0 -6.57797,1.39028 -2.94993,1.35638 -5.05217,3.93359 -2.06839,2.57709 -3.22114,6.2733 -1.1189,3.69618 -1.1189,8.34186 0,4.78132 0.98323,8.5114 1.0172,3.69618 3.01776,6.23943 2.00055,2.54323 4.98433,3.86575 2.98378,1.3224 6.98487,1.3224 3.01764,0 5.7303,-0.57657 2.71256,-0.60988 5.35727,-1.39028 v 5.49341 q -1.3224,0.50902 -2.64473,0.91528 -1.3224,0.37401 -2.7804,0.60984 -1.42409,0.23622 -3.08559,0.33858 -1.62752,0.1378 -3.62808,0.1378 -5.56076,0 -9.62978,-1.83111 -4.06897,-1.83277 -6.74746,-5.18977 -2.64472,-3.35711 -3.93316,-8.0706 -1.28854,-4.71349 -1.28854,-10.44409 0,-5.62907 1.45807,-10.30898 1.49186,-4.67962 4.34006,-8.03663 2.88209,-3.35709 7.12045,-5.22213 4.23845,-1.86504 9.73158,-1.86504 3.66193,0 6.98477,0.74602 3.32296,0.74602 6.00154,2.17024 l -2.64472,5.28998 q -2.13611,-1.08512 -4.64527,-1.86504 -2.50913,-0.77993 -5.69633,-0.77993 z"
      font-feature-settings="normal"
      font-variant-caps="normal"
      font-variant-ligatures="normal"
      font-variant-numeric="normal"
      id="path78"
      fill="#fafafa"
      stroke-width="10.417"
    />
    <path
      d="m 233.02063,345.4567 -18.44519,49.57634 h -6.06927 l 18.47944,-49.57634 z"
      font-feature-settings="normal"
      font-variant-caps="normal"
      font-variant-ligatures="normal"
      font-variant-numeric="normal"
      id="path80"
      fill="#fafafa"
      stroke-width="10.417"
    />
    <path
      d="m 277.54481,395.04635 h -7.28998 l -24.37889,-41.03134 h -0.27126 q 0.20354,2.61106 0.33858,5.18817 0.13622,2.20414 0.20355,4.61178 0.10196,2.40764 0.10196,4.34043 v 26.89088 h -5.8319 v -49.57635 h 7.22224 l 24.2771,40.82775 h 0.2378 q -0.10197,-2.57709 -0.2378,-5.08646 -0.038,-1.08512 -0.10197,-2.20414 -0.038,-1.15295 -0.10197,-2.27197 -0.038,-1.15295 -0.0665,-2.20413 0,-1.05115 0,-1.93288 V 345.4703 h 5.89983 z"
      font-feature-settings="normal"
      font-variant-caps="normal"
      font-variant-ligatures="normal"
      font-variant-numeric="normal"
      id="path82"
      fill="#fafafa"
      stroke-width="10.417"
    />
    <path
      d="m 453.35823,415.40744 h -17.97046 v -3.45867 l 5.83202,-1.39016 v -39.87845 l -5.83202,-1.39026 v -3.45882 h 17.97046 v 3.45882 l -5.83198,1.39028 v 39.8782 l 5.83198,1.39015 z"
      font-feature-settings="normal"
      font-variant-caps="normal"
      font-variant-ligatures="normal"
      font-variant-numeric="normal"
      id="path92"
      fill="#fafafa"
      stroke-width="10.417"
    />
    <path
      d="m 500.07057,415.40744 h -7.28997 l -24.37889,-41.03136 h -0.27166 q 0.20473,2.61106 0.33859,5.18827 0.13779,2.20413 0.20472,4.61168 0.10236,2.40764 0.10236,4.34043 v 26.8909 h -5.83307 v -49.57637 h 7.22225 l 24.27708,40.82773 h 0.23622 q -0.10237,-2.57716 -0.23622,-5.08646 -0.0381,-1.08504 -0.10237,-2.20394 -0.038,-1.15315 -0.10236,-2.27205 -0.0381,-1.15315 -0.0669,-2.20394 0,-1.05118 0,-1.93287 v -27.12809 h 5.89985 z"
      font-feature-settings="normal"
      font-variant-caps="normal"
      font-variant-ligatures="normal"
      font-variant-numeric="normal"
      id="path94"
      fill="#fafafa"
      stroke-width="10.417"
    />
    <path
      d="m 543.26282,380.31789 q 0,3.08576 -0.9496,5.93421 -0.91536,2.84847 -3.05158,5.05259 -2.13623,2.17027 -5.66249,3.49268 -3.49252,1.28858 -8.64623,1.28858 h -5.08615 v 19.29451 h -6.3065 v -49.5764 h 12.27458 q 4.54355,0 7.83257,0.98343 3.28898,0.94945 5.42508,2.81449 2.13623,1.83119 3.15316,4.54395 1.01732,2.71276 1.01732,6.17159 z m -23.39609,10.41079 h 4.37402 q 3.15316,0 5.49292,-0.54233 2.37363,-0.54232 3.89922,-1.72945 1.55984,-1.22071 2.33977,-3.11972 0.77992,-1.93288 0.77992,-4.67953 0,-4.8152 -2.78032,-7.12105 -2.78032,-2.3398 -8.68009,-2.3398 h -5.4252 z"
      font-feature-settings="normal"
      font-variant-caps="normal"
      font-variant-ligatures="normal"
      font-variant-numeric="normal"
      id="path96"
      fill="#fafafa"
      stroke-width="10.417"
    />
    <path
      d="m 589.02378,365.73214 v 32.14669 q 0,3.86575 -1.1189,7.18891 -1.11889,3.32323 -3.39055,5.76465 -2.2378,2.44134 -5.66245,3.8319 -3.39055,1.39015 -8.00209,1.39015 -4.34005,0 -7.66289,-1.28858 -3.32284,-1.32244 -5.59473,-3.72993 -2.2378,-2.40748 -3.39055,-5.76473 -1.15276,-3.39095 -1.15276,-7.528 v -31.94313 h 6.34071 v 32.28179 q 0,5.93422 2.91615,9.18962 2.95,3.25552 8.88363,3.25552 3.01772,0 5.1878,-0.91536 2.17009,-0.91535 3.56024,-2.57717 1.39016,-1.66142 2.06812,-3.96748 0.67834,-2.30591 0.71142,-5.05257 v -32.2819 z"
      font-feature-settings="normal"
      font-variant-caps="normal"
      font-variant-ligatures="normal"
      font-variant-numeric="normal"
      id="path98"
      fill="#fafafa"
      stroke-width="10.417"
    />
    <path
      d="m 616.51842,415.40744 h -6.3406 V 371.39232 H 596.0043 v -5.56123 h 34.65276 v 5.56123 h -14.13931 z"
      font-feature-settings="normal"
      font-variant-caps="normal"
      font-variant-ligatures="normal"
      font-variant-numeric="normal"
      id="path100"
      fill="#fafafa"
      stroke-width="10.417"
    />
    <path
      d="m 636.40211,411.60164 q 0,-1.28858 0.33858,-2.17008 0.33858,-0.91535 0.91536,-1.45827 0.57638,-0.57638 1.3563,-0.81338 0.78031,-0.27166 1.69528,-0.27166 0.88189,0 1.66142,0.27166 0.81338,0.23622 1.39015,0.81338 0.57638,0.54252 0.91536,1.45827 0.33858,0.88189 0.33858,2.17008 0,1.25473 -0.33858,2.17009 -0.33858,0.88189 -0.91536,1.45826 -0.57637,0.57638 -1.39015,0.84764 -0.78032,0.27166 -1.66142,0.27166 -0.91536,0 -1.69528,-0.27166 -0.78032,-0.27165 -1.3563,-0.84764 -0.57638,-0.57637 -0.91536,-1.45826 -0.33858,-0.91536 -0.33858,-2.17009 z m 0,-29.70529 q 0,-1.32252 0.33858,-2.20413 0.33858,-0.9156 0.91536,-1.45812 0.57638,-0.57649 1.3563,-0.81386 0.78031,-0.2374 1.69528,-0.2374 0.88189,0 1.66142,0.2374 0.81338,0.23741 1.39015,0.81386 0.57638,0.54252 0.91536,1.45812 0.33858,0.88161 0.33858,2.20413 0,1.25457 -0.33858,2.1363 -0.33858,0.88201 -0.91536,1.45812 -0.57637,0.57657 -1.39015,0.84775 -0.78032,0.27126 -1.66142,0.27126 -0.91536,0 -1.69528,-0.27126 -0.78032,-0.27126 -1.3563,-0.84775 -0.57638,-0.57658 -0.91536,-1.45812 -0.33858,-0.88201 -0.33858,-2.1363 z"
      font-feature-settings="normal"
      font-variant-caps="normal"
      font-variant-ligatures="normal"
      font-variant-numeric="normal"
      id="path102"
      fill="#fafafa"
      stroke-width="10.417"
    />
    <path
      d="m 481.8994,514.64386 q 0,5.73079 -1.39016,10.4441 -1.3563,4.71347 -4.06894,8.07056 -2.7126,3.35709 -6.74749,5.1882 -4.00099,1.8311 -9.25654,1.8311 -5.5269,0 -9.59557,-1.8311 -4.03492,-1.83111 -6.71351,-5.1882 -2.64488,-3.35709 -3.93307,-8.07056 -1.28859,-4.74737 -1.28859,-10.51166 0,-5.76466 1.28859,-10.44407 1.28858,-4.71351 3.96713,-8.03663 2.67874,-3.32323 6.74748,-5.12043 4.06883,-1.83111 9.59557,-1.83111 5.25555,0 9.22269,1.83111 4.00098,1.79724 6.71351,5.15429 2.7126,3.32324 4.06894,8.03663 1.39016,4.67961 1.39016,10.47836 z m -36.31481,0 q 0,4.64567 0.8819,8.37571 0.88189,3.69607 2.67874,6.3073 1.8311,2.57716 4.61138,3.96744 2.81418,1.3563 6.6797,1.3563 3.86535,0 6.64579,-1.3563 2.81418,-1.39016 4.61131,-3.96744 1.8311,-2.61103 2.67874,-6.3073 0.84764,-3.72992 0.84764,-8.37571 0,-4.67954 -0.84764,-8.37572 -0.84764,-3.69607 -2.64489,-6.23942 -1.79724,-2.57717 -4.57752,-3.93347 -2.78032,-1.39055 -6.64568,-1.39055 -3.86536,0 -6.67969,1.39055 -2.81418,1.3563 -4.64524,3.93347 -1.83111,2.54331 -2.71261,6.23942 -0.88189,3.69606 -0.88189,8.37572 z"
      font-feature-settings="normal"
      font-variant-caps="normal"
      font-variant-ligatures="normal"
      font-variant-numeric="normal"
      id="path112"
      fill="#fafafa"
      stroke-width="10.417"
    />
    <path
      d="m 528.42143,489.81095 v 32.14673 q 0,3.86576 -1.1189,7.18899 -1.1189,3.32323 -3.39056,5.76465 -2.2378,2.44134 -5.66248,3.8319 -3.39056,1.39055 -8.00206,1.39055 -4.34016,0 -7.663,-1.28859 -3.32284,-1.32244 -5.59466,-3.72992 -2.23779,-2.40749 -3.39055,-5.76469 -1.15276,-3.39095 -1.15276,-7.52797 v -31.94311 h 6.3406 v 32.28182 q 0,5.93422 2.91615,9.18961 2.95,3.25512 8.88363,3.25512 3.01772,0 5.18772,-0.91535 2.17008,-0.91536 3.56024,-2.57717 1.39016,-1.66181 2.06851,-3.96744 0.67835,-2.30591 0.71181,-5.05261 V 489.8117 Z"
      font-feature-settings="normal"
      font-variant-caps="normal"
      font-variant-ligatures="normal"
      font-variant-numeric="normal"
      id="path114"
      fill="#fafafa"
      stroke-width="10.417"
    />
    <path
      d="m 555.91607,539.47676 h -6.3406 v -44.01513 h -14.17352 v -5.56111 h 34.65276 v 5.56111 H 555.9154 Z"
      font-feature-settings="normal"
      font-variant-caps="normal"
      font-variant-ligatures="normal"
      font-variant-numeric="normal"
      id="path116"
      fill="#fafafa"
      stroke-width="10.417"
    />
    <path
      d="m 607.29014,504.46333 q 0,3.08583 -0.9496,5.9343 -0.91536,2.84843 -3.05158,5.0526 -2.13622,2.17009 -5.66245,3.49253 -3.49252,1.28858 -8.64635,1.28858 h -5.08603 v 19.29447 h -6.30666 v -49.57632 h 12.27458 q 4.54355,0 7.83253,0.98347 3.28898,0.94961 5.42513,2.81457 2.13622,1.83111 3.15315,4.54394 1.01732,2.71261 1.01732,6.17159 z m -23.39613,10.4108 h 4.37402 q 3.15316,0 5.49292,-0.54252 2.37363,-0.54252 3.89922,-1.72914 1.55985,-1.22086 2.33977,-3.11968 0.77992,-1.93268 0.77992,-4.67962 0,-4.8152 -2.78032,-7.12103 -2.78032,-2.33976 -8.68024,-2.33976 h -5.42509 z"
      font-feature-settings="normal"
      font-variant-caps="normal"
      font-variant-ligatures="normal"
      font-variant-numeric="normal"
      id="path118"
      fill="#fafafa"
      stroke-width="10.417"
    />
    <path
      d="m 653.05111,489.81095 v 32.14673 q 0,3.86576 -1.1189,7.18899 -1.1189,3.32323 -3.39056,5.76465 -2.2378,2.44134 -5.66245,3.8319 -3.39055,1.39055 -8.00209,1.39055 -4.34005,0 -7.663,-1.28859 -3.32284,-1.32244 -5.59466,-3.72992 -2.23779,-2.40749 -3.39055,-5.76469 -1.15276,-3.39095 -1.15276,-7.52797 v -31.94311 h 6.3406 v 32.28182 q 0,5.93422 2.91614,9.18961 2.95001,3.25512 8.8836,3.25512 3.01772,0 5.18784,-0.91535 2.17008,-0.91536 3.56024,-2.57717 1.39016,-1.66181 2.06811,-3.96744 0.67835,-2.30591 0.7126,-5.05261 V 489.8117 Z"
      font-feature-settings="normal"
      font-variant-caps="normal"
      font-variant-ligatures="normal"
      font-variant-numeric="normal"
      id="path120"
      fill="#fafafa"
      stroke-width="10.417"
    />
    <path
      d="m 680.54574,539.47676 h -6.34063 v -44.01513 h -14.17352 v -5.56111 h 34.65275 v 5.56111 h -14.13926 z"
      font-feature-settings="normal"
      font-variant-caps="normal"
      font-variant-ligatures="normal"
      font-variant-numeric="normal"
      id="path122"
      fill="#fafafa"
      stroke-width="10.417"
    />
    <path
      d="m 700.42939,535.76609 q 0,-1.28859 0.33858,-2.17009 0.33859,-0.91535 0.91536,-1.45827 0.57638,-0.57637 1.3563,-0.81338 0.78032,-0.27166 1.69528,-0.27166 0.88189,0 1.66142,0.27166 0.81338,0.23622 1.39016,0.81338 0.57638,0.54213 0.91535,1.45827 0.33859,0.8819 0.33859,2.17009 0,1.25472 -0.33859,2.17047 -0.33858,0.88189 -0.91535,1.45788 -0.57638,0.57677 -1.39016,0.84764 -0.78032,0.27165 -1.66142,0.27165 -0.91536,0 -1.69528,-0.27165 -0.78032,-0.27166 -1.3563,-0.84764 -0.57638,-0.57638 -0.91536,-1.45788 -0.33858,-0.91535 -0.33858,-2.17047 z m 0,-29.70528 q 0,-1.32244 0.33858,-2.20433 0.33859,-0.91536 0.91536,-1.45827 0.57638,-0.57638 1.3563,-0.81339 0.78032,-0.23622 1.69528,-0.23622 0.88189,0 1.66142,0.23622 0.81338,0.23622 1.39016,0.81339 0.57638,0.54252 0.91535,1.45827 0.33859,0.88189 0.33859,2.20433 0,1.25473 -0.33859,2.13623 -0.33858,0.88189 -0.91535,1.45827 -0.57638,0.57637 -1.39016,0.84763 -0.78032,0.27166 -1.66142,0.27166 -0.91536,0 -1.69528,-0.27166 -0.78032,-0.27165 -1.3563,-0.84763 -0.57638,-0.57638 -0.91536,-1.45827 -0.33858,-0.88189 -0.33858,-2.13623 z"
      font-feature-settings="normal"
      font-variant-caps="normal"
      font-variant-ligatures="normal"
      font-variant-numeric="normal"
      id="path124"
      fill="#fafafa"
      stroke-width="10.417"
    />
    <path
      d="m 764.55183,410.07932 h -5.96757 v -30.96025 q 0,-1.45812 0,-3.11973 0.038,-1.66162 0.0669,-3.28926 0.0669,-1.66162 0.10237,-3.15359 0.0669,-1.52594 0.10236,-2.6789 -0.57638,0.61036 -1.01733,1.05115 -0.44055,0.44082 -0.91535,0.84775 -0.44055,0.40693 -0.94961,0.88162 -0.50905,0.44079 -1.22087,1.05114 l -5.01823,4.10314 -3.25512,-4.17088 12.98619,-10.13867 h 5.08603 z"
      font-feature-settings="normal"
      font-variant-caps="normal"
      font-variant-ligatures="normal"
      font-variant-numeric="normal"
      id="path168"
      fill="#ffffff"
      stroke-width="10.417"
    />
    <path
      d="m 813.73772,385.15127 q 0,6.00204 -0.88189,10.74949 -0.84764,4.74737 -2.78032,8.03662 -1.89882,3.28938 -4.9165,5.01863 -3.01772,1.72953 -7.32395,1.72953 -4.00099,0 -6.98489,-1.72953 -2.95,-1.72914 -4.91646,-5.01863 -1.93268,-3.28937 -2.91615,-8.03662 -0.94961,-4.74745 -0.94961,-10.74949 0,-6.00204 0.84764,-10.74951 0.88189,-4.74736 2.74646,-8.00275 1.89882,-3.28926 4.88261,-5.01862 3.01772,-1.72938 7.29001,-1.72938 4.03492,0 7.01871,1.72938 2.98386,1.69547 4.95047,4.98475 1.96654,3.25539 2.95001,8.00275 0.98307,4.74737 0.98307,10.78376 z m -25.3959,0 q 0,5.08656 0.50906,8.88445 0.50905,3.79803 1.62756,6.34115 1.1189,2.50905 2.91614,3.79803 1.83111,1.25473 4.44186,1.25473 2.61063,0 4.44185,-1.25473 1.83071,-1.25472 2.98387,-3.76418 1.18661,-2.50945 1.69527,-6.30729 0.54213,-3.83177 0.54213,-8.9522 0,-5.08646 -0.54213,-8.88437 -0.50905,-3.79792 -1.69527,-6.30727 -1.15276,-2.50937 -2.98387,-3.76406 -1.8311,-1.25469 -4.44185,-1.25469 -2.61103,0 -4.44186,1.25469 -1.79724,1.25469 -2.91614,3.76406 -1.1189,2.50937 -1.62756,6.30727 -0.50906,3.79792 -0.50906,8.88441 z"
      font-feature-settings="normal"
      font-variant-caps="normal"
      font-variant-ligatures="normal"
      font-variant-numeric="normal"
      id="path170"
      fill="#ffffff"
      stroke-width="10.417"
    />
    <path
      d="m 851.98284,385.15127 q 0,6.00204 -0.88189,10.74949 -0.84764,4.74737 -2.78032,8.03662 -1.89882,3.28938 -4.9165,5.01863 -3.01772,1.72953 -7.32394,1.72953 -4.00099,0 -6.98486,-1.72953 -2.95,-1.72914 -4.9165,-5.01863 -1.93268,-3.28937 -2.91614,-8.03662 -0.94961,-4.74745 -0.94961,-10.74949 0,-6.00204 0.84764,-10.74951 0.88189,-4.74736 2.74646,-8.00275 1.89882,-3.28926 4.8826,-5.01862 3.01772,-1.72938 7.29001,-1.72938 4.03493,0 7.01875,1.72938 2.98386,1.69547 4.95044,4.98475 1.96654,3.25539 2.95,8.00275 0.98307,4.74737 0.98307,10.78376 z m -25.39589,0 q 0,5.08656 0.50905,8.88445 0.50906,3.79803 1.62756,6.34115 1.1189,2.50905 2.91615,3.79803 1.8311,1.25473 4.44185,1.25473 2.61103,0 4.44186,-1.25473 1.83071,-1.25472 2.98386,-3.76418 1.18662,-2.50945 1.69528,-6.30729 0.54213,-3.83177 0.54213,-8.9522 0,-5.08646 -0.54213,-8.88437 -0.50906,-3.79792 -1.69528,-6.30727 -1.15276,-2.50937 -2.98386,-3.76406 -1.83111,-1.25469 -4.44186,-1.25469 -2.61063,0 -4.44185,1.25469 -1.79725,1.25469 -2.91615,3.76406 -1.1189,2.50937 -1.62756,6.30727 -0.50905,3.79792 -0.50905,8.88441 z"
      font-feature-settings="normal"
      font-variant-caps="normal"
      font-variant-ligatures="normal"
      font-variant-numeric="normal"
      id="path172"
      fill="#ffffff"
      stroke-width="10.417"
    />
    <path
      d="m 857.97651,394.28521 v -5.69692 h 16.81833 v 5.69692 z"
      font-feature-settings="normal"
      font-variant-caps="normal"
      font-variant-ligatures="normal"
      font-variant-numeric="normal"
      id="path174"
      fill="#ffffff"
      stroke-width="10.417"
    />
    <path
      d="m 911.8241,410.07932 h -30.92335 v -5.29001 l 11.86738,-12.91974 q 2.54291,-2.74674 4.54359,-5.01863 2.00039,-2.27197 3.39055,-4.44223 1.42402,-2.17024 2.17008,-4.34043 0.74567,-2.20414 0.74567,-4.78133 0,-2.00071 -0.57638,-3.52666 -0.57637,-1.52595 -1.66142,-2.57709 -1.05118,-1.08512 -2.50905,-1.62764 -1.45788,-0.54252 -3.25513,-0.54252 -3.22126,0 -5.83197,1.32252 -2.57717,1.28855 -4.91662,3.32316 l -3.45867,-4.0353 q 1.3563,-1.22071 2.91615,-2.27197 1.55984,-1.08512 3.3567,-1.86504 1.79685,-0.77993 3.79764,-1.22071 2.00039,-0.47477 4.20449,-0.47477 3.25512,0 5.86587,0.91559 2.64489,0.91559 4.47572,2.64493 1.8311,1.69547 2.81418,4.17088 1.01732,2.44154 1.01732,5.52727 0,2.88232 -0.91536,5.49339 -0.88189,2.61107 -2.4752,5.15431 -1.55984,2.50937 -3.76378,5.05258 -2.17008,2.54324 -4.71312,5.28997 l -9.52796,10.13867 v 0.27166 h 23.36188 z"
      font-feature-settings="normal"
      font-variant-caps="normal"
      font-variant-ligatures="normal"
      font-variant-numeric="normal"
      id="path176"
      fill="#ffffff"
      stroke-width="10.417"
    />
    <path
      d="m 952.73308,398.94734 h -7.22213 v 11.12245 h -5.96769 v -11.12245 h -22.88715 v -5.39171 l 22.47999,-33.33316 h 6.37453 v 33.09625 h 7.22218 z m -13.18982,-5.6291 v -12.07201 q 0,-1.8989 0.0381,-3.96746 0.0669,-2.10241 0.1378,-4.06917 0.0669,-2.00071 0.13779,-3.73009 0.10237,-1.72937 0.1378,-2.88232 h -0.30709 q -0.23622,0.67819 -0.60984,1.52594 -0.33858,0.81386 -0.78032,1.66162 -0.40708,0.81386 -0.84763,1.59378 -0.44056,0.77992 -0.81339,1.32252 l -13.93911,20.617 z"
      font-feature-settings="normal"
      font-variant-caps="normal"
      font-variant-ligatures="normal"
      font-variant-numeric="normal"
      id="path178"
      fill="#ffffff"
      stroke-width="10.417"
    />
    <path
      d="m 989.07549,385.15127 q 0,6.00204 -0.88189,10.74949 -0.84764,4.74737 -2.78032,8.03662 -1.89882,3.28938 -4.9165,5.01863 -3.01772,1.72953 -7.32395,1.72953 -4.00099,0 -6.98485,-1.72953 -2.95,-1.72914 -4.9165,-5.01863 -1.93268,-3.28937 -2.91615,-8.03662 -0.9496,-4.74745 -0.9496,-10.74949 0,-6.00204 0.84763,-10.74951 0.8819,-4.74736 2.74646,-8.00275 1.89883,-3.28926 4.88261,-5.01862 3.01772,-1.72938 7.28997,-1.72938 4.03496,0 7.01875,1.72938 2.98386,1.69547 4.95048,4.98475 1.96653,3.25539 2.95,8.00275 0.98307,4.74737 0.98307,10.78376 z m -25.39594,0 q 0,5.08656 0.50906,8.88445 0.50905,3.79803 1.62756,6.34115 1.1189,2.50905 2.91575,3.79803 1.83111,1.25473 4.44186,1.25473 2.61102,0 4.44185,-1.25473 1.83111,-1.25472 2.98386,-3.76418 1.18662,-2.50945 1.69528,-6.30729 0.54213,-3.83177 0.54213,-8.9522 0,-5.08646 -0.54213,-8.88437 -0.50905,-3.79792 -1.69528,-6.30727 -1.15275,-2.50937 -2.98386,-3.76406 -1.8311,-1.25469 -4.44185,-1.25469 -2.61103,0 -4.44186,1.25469 -1.79725,1.25469 -2.91575,3.76406 -1.1189,2.50937 -1.62756,6.30727 -0.50906,3.79792 -0.50906,8.88441 z"
      font-feature-settings="normal"
      font-variant-caps="normal"
      font-variant-ligatures="normal"
      font-variant-numeric="normal"
      id="path180"
      fill="#ffffff"
      stroke-width="10.417"
    />
    <path
      d="m 1025.0373,360.47061 h 6.7136 l -16.5805,49.57635 h -6.3406 l -16.51293,-49.57635 h 6.67969 l 10.00274,31.43407 q 0.9835,3.08571 1.6953,5.96817 0.7118,2.84843 1.2886,5.35772 0.509,-2.50945 1.2885,-5.35772 0.7804,-2.88229 1.8311,-6.17169 z"
      font-feature-settings="normal"
      font-variant-caps="normal"
      font-variant-ligatures="normal"
      font-variant-numeric="normal"
      id="path182"
      fill="#ffffff"
      stroke-width="10.417"
    />
    <path
      d="m 1085.6397,410.07932 -5.4251,-15.3612 h -18.4795 l -5.4929,15.3612 h -6.3746 l 18.2083,-49.77997 h 5.7642 l 18.2416,49.77997 z m -7.4257,-20.95669 -5.0183,-14.37739 q -0.2047,-0.61035 -0.509,-1.49205 -0.2717,-0.88161 -0.5764,-1.8989 -0.3071,-1.01728 -0.6106,-2.1024 -0.3071,-1.11902 -0.5764,-2.17024 -0.2362,1.05114 -0.5421,2.17024 -0.3071,1.11902 -0.6099,2.17028 -0.3071,1.01728 -0.6098,1.8989 -0.2717,0.84775 -0.4748,1.42421 l -4.9165,14.37739 z"
      font-feature-settings="normal"
      font-variant-caps="normal"
      font-variant-ligatures="normal"
      font-variant-numeric="normal"
      id="path184"
      fill="#ffffff"
      stroke-width="10.417"
    />
    <path
      d="m 1118.2717,365.3135 q -3.6279,0 -6.578,1.39027 -2.95,1.35638 -5.0521,3.93359 -2.0681,2.57709 -3.2213,6.2733 -1.1189,3.69619 -1.1189,8.34186 0,4.78133 0.9835,8.51139 1.0173,3.69606 3.0177,6.23941 2.0004,2.54331 4.9843,3.86576 2.9839,1.32244 6.9849,1.32244 3.0177,0 5.7303,-0.57638 2.7126,-0.60984 5.3573,-1.39016 v 5.49339 q -1.3225,0.50906 -2.6449,0.91536 -1.3225,0.37401 -2.7803,0.60984 -1.4241,0.23622 -3.0855,0.33858 -1.6275,0.1378 -3.6279,0.1378 -5.5608,0 -9.6299,-1.8311 -4.0688,-1.83111 -6.7474,-5.18816 -2.6448,-3.35709 -3.933,-8.0706 -1.2886,-4.71347 -1.2886,-10.44407 0,-5.62898 1.4579,-10.30898 1.4917,-4.67952 4.34,-8.03663 2.8823,-3.35709 7.1206,-5.22213 4.2383,-1.86505 9.7315,-1.86505 3.6619,0 6.9849,0.74603 3.3228,0.74602 6.0015,2.17028 l -2.6448,5.28998 q -2.1363,-1.08512 -4.6453,-1.86505 -2.509,-0.77988 -5.6963,-0.77988 z"
      font-feature-settings="normal"
      font-variant-caps="normal"
      font-variant-ligatures="normal"
      font-variant-numeric="normal"
      id="path186"
      fill="#ffffff"
      stroke-width="10.417"
    />
    <path
      d="m 849.03359,249.02456 h -35.94091 v -6.91767 l 11.66383,-2.7806 V 159.5702 l -11.66383,-2.78058 v -6.91767 h 35.94091 v 6.91767 l -11.6638,2.78059 v 79.75611 l 11.6638,2.78059 z"
      font-feature-settings="normal"
      font-variant-caps="normal"
      font-variant-ligatures="normal"
      font-variant-numeric="normal"
      id="path142"
      fill="#ffffff"
      stroke-width="10.4171"
    />
    <path
      d="m 880.90453,208.06373 v 40.96368 h -12.61328 v -99.1528 h 24.14105 q 18.03801,0 26.65078,6.98551 8.61229,6.98552 8.61229,21.15977 0,5.90036 -1.69527,10.30824 -1.62756,4.40835 -4.4078,7.59587 -2.71261,3.11969 -6.23879,5.22215 -3.52638,2.10249 -7.25603,3.45879 l 26.98944,44.42227 H 920.23596 L 896.4336,208.06354 Z m 0,-10.71547 h 11.12155 q 6.10316,0 10.37564,-1.15299 4.27225,-1.22075 6.9847,-3.52662 2.78031,-2.37374 4.00098,-5.83252 1.28859,-3.52662 1.28859,-8.20624 0,-4.88305 -1.42402,-8.27409 -1.3563,-3.39103 -4.20437,-5.56125 -2.78032,-2.1702 -7.12037,-3.11969 -4.27221,-1.01733 -10.17206,-1.01733 h -10.8504 z"
      font-feature-settings="normal"
      font-variant-caps="normal"
      font-variant-ligatures="normal"
      font-variant-numeric="normal"
      id="path144"
      fill="#ffffff"
      stroke-width="10.4171"
    />
    <path
      d="m 991.16848,249.02456 -30.04145,-86.80937 h -0.54213 q 0.40709,5.01863 0.67835,9.96952 0.27165,4.27267 0.40709,9.02004 0.20472,4.67962 0.20472,8.54535 v 59.27474 h -11.66379 v -99.1528 h 18.71632 l 27.93893,80.84174 h 0.40709 l 28.07389,-80.84174 h 18.7163 v 99.1528 h -12.6133 v -60.15675 q 0,-3.52662 0.1378,-8.07057 0.1378,-4.54394 0.3386,-8.68094 0.2716,-4.8152 0.4748,-9.7659 h -0.5421 l -30.3126,86.67426 z"
      font-feature-settings="normal"
      font-variant-caps="normal"
      font-variant-ligatures="normal"
      font-variant-numeric="normal"
      id="path146"
      fill="#ffffff"
      stroke-width="10.4171"
    />
    <path
      d="m 1063.1873,217.49281 v -11.39387 h 33.6348 v 11.39387 z"
      font-feature-settings="normal"
      font-variant-caps="normal"
      font-variant-ligatures="normal"
      font-variant-numeric="normal"
      id="path148"
      fill="#ffffff"
      stroke-width="10.4171"
    />
    <path
      d="m 1172.4047,199.31971 q 0,12.00376 -1.763,21.49849 -1.6952,9.49482 -5.5606,16.0732 -3.7977,6.57856 -9.8325,10.03706 -6.0354,3.45879 -14.6473,3.45879 -8.002,0 -13.9699,-3.45879 -5.8998,-3.45878 -9.8334,-10.03706 -3.8654,-6.57857 -5.8319,-16.0732 -1.8988,-9.49483 -1.8988,-21.49849 0,-12.00376 1.6953,-21.49849 1.763,-9.49482 5.4929,-16.00565 3.7976,-6.57856 9.7649,-10.03706 6.0353,-3.45879 14.5797,-3.45879 8.0698,0 14.0375,3.45879 5.9676,3.39102 9.9009,9.96951 3.9331,6.51073 5.8998,16.00565 1.9665,9.49491 1.9665,21.56699 z m -50.7918,0 q 0,10.17313 1.0174,17.76872 1.0173,7.59588 3.2551,12.68216 2.2378,5.01872 5.8319,7.59588 3.6618,2.50929 8.8835,2.50929 5.2216,0 8.8835,-2.50929 3.6618,-2.50934 5.9675,-7.52804 2.3737,-5.01863 3.3906,-12.6146 1.085,-7.66363 1.085,-17.90479 0,-10.17313 -1.085,-17.76872 -1.0173,-7.59588 -3.3906,-12.6146 -2.3055,-5.01863 -5.9675,-7.52804 -3.6619,-2.50933 -8.8835,-2.50933 -5.2216,0 -8.8835,2.50933 -3.5941,2.50933 -5.8319,7.52804 -2.2378,5.01872 -3.2551,12.6146 -1.0174,7.59588 -1.0174,17.76872 z"
      font-feature-settings="normal"
      font-variant-caps="normal"
      font-variant-ligatures="normal"
      font-variant-numeric="normal"
      id="path150"
      fill="#ffffff"
      stroke-width="10.4171"
    />
    <path
      d="m 1215.8824,188.19701 q 6.7134,0 12.4772,1.89894 5.8319,1.83111 10.1036,5.49341 4.3401,3.66233 6.7814,9.08788 2.4413,5.42558 2.4413,12.54705 0,7.73147 -2.3055,13.9029 -2.3055,6.17162 -6.8491,10.4443 -4.5435,4.27267 -11.2567,6.57856 -6.6456,2.23804 -15.3256,2.23804 -3.4582,0 -6.8491,-0.33898 -3.3229,-0.33898 -6.4422,-1.01732 -3.0516,-0.61036 -5.8319,-1.62768 -2.7803,-1.01733 -5.0182,-2.37375 v -11.66511 q 2.2378,1.55984 5.2216,2.78059 3.0516,1.22075 6.3745,2.03461 3.3228,0.81378 6.6456,1.28858 3.3905,0.40693 6.2388,0.40693 5.3572,0 9.5613,-1.22075 4.2044,-1.28858 7.1203,-3.93358 2.9162,-2.64501 4.4757,-6.64641 1.5598,-4.00141 1.5598,-9.49482 0,-9.69835 -5.9676,-14.78491 -5.9675,-5.15431 -17.3597,-5.15431 -1.8311,0 -4.001,0.20354 -2.1019,0.13583 -4.2722,0.40693 -2.1019,0.27126 -4.0687,0.61036 -1.8988,0.27126 -3.3229,0.54252 l -6.1031,-3.86575 3.7295,-46.66014 h 46.7913 v 11.2578 h -36.076 l -2.6445,28.41664 q 2.1701,-0.40693 5.6962,-0.88162 3.5941,-0.4748 8.4767,-0.4748 z"
      font-feature-settings="normal"
      font-variant-caps="normal"
      font-variant-ligatures="normal"
      font-variant-numeric="normal"
      id="path152"
      fill="#ffffff"
      stroke-width="10.4171"
    />
    <path
      d="m 1260.9774,217.49281 v -11.39387 h 33.6348 v 11.39387 z"
      font-feature-settings="normal"
      font-variant-caps="normal"
      font-variant-ligatures="normal"
      font-variant-numeric="normal"
      id="path154"
      fill="#ffffff"
      stroke-width="10.4171"
    />
    <path
      d="m 1370.1948,199.31971 q 0,12.00376 -1.7629,21.49849 -1.6953,9.49482 -5.5607,16.0732 -3.7977,6.57856 -9.8334,10.03706 -6.0353,3.45879 -14.6473,3.45879 -8.0019,0 -13.97,-3.45879 -5.8997,-3.45878 -9.8333,-10.03706 -3.8654,-6.57857 -5.8319,-16.0732 -1.8988,-9.49483 -1.8988,-21.49849 0,-12.00376 1.6952,-21.49849 1.763,-9.49482 5.4929,-16.00565 3.7976,-6.57856 9.7649,-10.03706 6.0353,-3.45879 14.5797,-3.45879 8.0698,0 14.0375,3.45879 5.9675,3.39102 9.9009,9.96951 3.9331,6.51073 5.8998,16.00565 1.9665,9.49491 1.9665,21.56699 z m -50.7918,0 q 0,10.17313 1.0173,17.76872 1.0174,7.59588 3.2552,12.68216 2.2378,5.01872 5.8319,7.59588 3.6618,2.50929 8.8835,2.50929 5.2216,0 8.8835,-2.50929 3.6618,-2.50934 5.9675,-7.52804 2.3736,-5.01863 3.3905,-12.6146 1.0851,-7.66363 1.0851,-17.90479 0,-10.17313 -1.0851,-17.76872 -1.0172,-7.59588 -3.3907,-12.6146 -2.3057,-5.01863 -5.9675,-7.52804 -3.6618,-2.50933 -8.8835,-2.50933 -5.2216,0 -8.8835,2.50933 -3.5941,2.50933 -5.8319,7.52804 -2.2378,5.01872 -3.2552,12.6146 -1.0173,7.59588 -1.0173,17.76872 z"
      font-feature-settings="normal"
      font-variant-caps="normal"
      font-variant-ligatures="normal"
      font-variant-numeric="normal"
      id="path156"
      fill="#ffffff"
      stroke-width="10.4171"
    />
    <path
      d="m 1413.5774,188.19701 q 6.7134,0 12.4772,1.89894 5.8319,1.83111 10.1045,5.49341 4.3401,3.66233 6.7813,9.08788 2.4413,5.42558 2.4413,12.54705 0,7.73147 -2.3055,13.9029 -2.3055,6.17162 -6.8491,10.4443 -4.5434,4.27267 -11.2566,6.57856 -6.6456,2.23804 -15.3256,2.23804 -3.4587,0 -6.8491,-0.33898 -3.3229,-0.33898 -6.4423,-1.01732 -3.0515,-0.61036 -5.832,-1.62768 -2.7803,-1.01733 -5.0181,-2.37375 v -11.66511 q 2.2378,1.55984 5.2216,2.78059 3.0516,1.22075 6.3744,2.03461 3.3228,0.81378 6.6457,1.28858 3.3906,0.40693 6.2388,0.40693 5.3572,0 9.5613,-1.22075 4.2044,-1.28858 7.1203,-3.93358 2.9158,-2.64501 4.4757,-6.64641 1.5598,-4.00141 1.5598,-9.49482 0,-9.69835 -5.9675,-14.78491 -5.9676,-5.15431 -17.3607,-5.15431 -1.8311,0 -4.0009,0.20354 -2.1023,0.13583 -4.2722,0.40693 -2.1023,0.27126 -4.0688,0.61036 -1.8988,0.27126 -3.3228,0.54252 l -6.1033,-3.86575 3.73,-46.66014 h 46.7913 v 11.2578 h -36.076 l -2.6449,28.41664 q 2.1701,-0.40693 5.6963,-0.88162 3.5941,-0.4748 8.4767,-0.4748 z"
      font-feature-settings="normal"
      font-variant-caps="normal"
      font-variant-ligatures="normal"
      font-variant-numeric="normal"
      id="path158"
      fill="#ffffff"
      stroke-width="10.4171"
    />
    <path
      d="m 941.60205,509.03031 q 3.35669,0 6.2389,0.9496 2.91615,0.91536 5.05217,2.74686 2.17008,1.8311 3.39056,4.54394 1.22047,2.71299 1.22047,6.27331 0,3.86576 -1.15276,6.95159 -1.15275,3.08583 -3.4248,5.22205 -2.27166,2.13622 -5.62859,3.28937 -3.32284,1.1193 -7.66293,1.1193 -1.72913,0 -3.4248,-0.16929 -1.66142,-0.1693 -3.22127,-0.50906 -1.52598,-0.30709 -2.91614,-0.81339 -1.39016,-0.50905 -2.50906,-1.18701 v -5.83248 q 1.1189,0.78031 2.61103,1.39016 1.52598,0.61102 3.18701,1.01732 1.66142,0.40709 3.32284,0.64409 1.69527,0.20473 3.11929,0.20473 2.67875,0 4.78083,-0.60984 2.10237,-0.6441 3.56025,-1.96654 1.45787,-1.32244 2.23779,-3.32323 0.78032,-2.00079 0.78032,-4.74745 0,-4.84906 -2.98386,-7.39229 -2.98386,-2.57717 -8.68021,-2.57717 -0.91536,0 -2.0004,0.10236 -1.05118,0.0669 -2.13622,0.20473 -1.05118,0.13779 -2.03425,0.30708 -0.94961,0.1378 -1.66142,0.27166 l -3.05158,-1.93268 1.86496,-23.32964 h 23.39609 v 5.62899 H 935.8383 l -1.32244,14.20804 q 1.08504,-0.20472 2.84803,-0.44055 1.79725,-0.23622 4.23835,-0.23622 z"
      font-feature-settings="normal"
      font-variant-caps="normal"
      font-variant-ligatures="normal"
      font-variant-numeric="normal"
      id="path196"
      fill="#ffffff"
      stroke-width="10.417"
    />
    <path
      d="m 994.11774,489.90611 h 6.71356 l -16.5805,49.57636 h -6.34064 l -16.51293,-49.57636 h 6.67965 l 10.00273,31.43405 q 0.98307,3.08583 1.69528,5.96808 0.71141,2.84843 1.28858,5.35784 0.50906,-2.50945 1.28859,-5.35784 0.78031,-2.88229 1.8311,-6.17158 z"
      font-feature-settings="normal"
      font-variant-caps="normal"
      font-variant-ligatures="normal"
      font-variant-numeric="normal"
      id="path198"
      fill="#ffffff"
      stroke-width="10.417"
    />
    <path
      d="m 1064.0196,505.65014 h 118.0032"
      stroke-width="2.93996"
      fill="none"
      stroke="#ffffff"
      id="path208"
    />
    <path
      d="m 1064.0196,531.79447 h 29.4914"
      stroke-width="2.93996"
      fill="none"
      stroke="#fff7f7"
      id="path210"
    />
    <path
      d="m 1108.2826,531.79447 h 29.4913"
      stroke-width="2.93996"
      fill="none"
      stroke="#fff7f7"
      id="path212"
    />
    <path
      d="m 1152.5455,531.79447 h 29.4914"
      stroke-width="2.93996"
      fill="none"
      stroke="#fff7f7"
      id="path214"
    />
    <path
      d="m 1317.1083,385.36084 q 0,6.00207 -0.8819,10.74972 -0.8476,4.74745 -2.7803,8.0367 -1.8988,3.28938 -4.9164,5.01871 -3.0177,1.72953 -7.3238,1.72953 -4.0009,0 -6.9847,-1.72953 -2.95,-1.72953 -4.9165,-5.01871 -1.9326,-3.28937 -2.9157,-8.0367 -0.9496,-4.74737 -0.9496,-10.74972 0,-6.00207 0.8476,-10.74972 0.8819,-4.74737 2.7465,-8.00273 1.8988,-3.28925 4.8825,-5.01872 3.0177,-1.72941 7.2899,-1.72941 4.0349,0 7.0186,1.72941 2.9839,1.69551 4.9504,4.98475 1.9665,3.25536 2.95,8.00273 0.9831,4.74737 0.9831,10.78303 z m -25.3959,0 q 0,5.08647 0.5091,8.88444 0.509,3.79804 1.6275,6.34119 1.1189,2.50946 2.9158,3.79804 1.8307,1.25473 4.4417,1.25473 2.611,0 4.4417,-1.25473 1.8311,-1.25473 2.9839,-3.76418 1.1866,-2.50945 1.6953,-6.30729 0.5421,-3.83178 0.5421,-8.9522 0,-5.08647 -0.5421,-8.88446 -0.5091,-3.79787 -1.6953,-6.3073 -1.1528,-2.50929 -2.9839,-3.76402 -1.8311,-1.25472 -4.4417,-1.25472 -2.6107,0 -4.4417,1.25472 -1.7972,1.25469 -2.9158,3.76402 -1.1189,2.50934 -1.6275,6.3073 -0.5091,3.79788 -0.5091,8.88446 z"
      font-feature-settings="normal"
      font-variant-caps="normal"
      font-variant-ligatures="normal"
      font-variant-numeric="normal"
      id="path216"
      fill="#ffffff"
      stroke-width="10.4171"
    />
    <path
      d="m 1325.3853,406.48349 q 0,-1.28859 0.3385,-2.17008 0.3386,-0.91536 0.9154,-1.45827 0.5764,-0.57677 1.3563,-0.81339 0.7799,-0.27165 1.6953,-0.27165 0.8819,0 1.6614,0.27165 0.8134,0.23622 1.3902,0.81339 0.5763,0.54212 0.9153,1.45827 0.3386,0.88189 0.3386,2.17008 0,1.25472 -0.3386,2.17008 -0.3386,0.88189 -0.9153,1.45827 -0.5764,0.57638 -1.3902,0.84764 -0.7803,0.27165 -1.6614,0.27165 -0.9154,0 -1.6953,-0.27165 -0.7803,-0.27166 -1.3563,-0.84764 -0.5764,-0.57638 -0.9154,-1.45827 -0.3385,-0.91536 -0.3385,-2.17008 z"
      font-feature-settings="normal"
      font-variant-caps="normal"
      font-variant-ligatures="normal"
      font-variant-numeric="normal"
      id="path218"
      fill="#ffffff"
      stroke-width="10.4171"
    />
    <path
      d="m 1363.0596,410.2894 h -5.9676 v -30.95993 q 0,-1.45811 0,-3.11969 0.038,-1.66154 0.067,-3.28926 0.067,-1.66154 0.1024,-3.15366 0.067,-1.52599 0.1024,-2.67886 -0.5764,0.61035 -1.0174,1.05118 -0.4405,0.44083 -0.9153,0.84775 -0.4406,0.40693 -0.9496,0.88162 -0.5091,0.44083 -1.2205,1.05118 l -5.0194,4.10319 -3.255,-4.17097 12.9862,-10.13887 h 5.0859 z"
      font-feature-settings="normal"
      font-variant-caps="normal"
      font-variant-ligatures="normal"
      font-variant-numeric="normal"
      id="path220"
      fill="#ffffff"
      stroke-width="10.4171"
    />
    <path
      d="m 1411.3892,410.2894 h -30.9224 v -5.29001 l 11.8674,-12.92002 q 2.5429,-2.74682 4.5435,-5.01873 2.0004,-2.27201 3.3905,-4.44222 1.424,-2.1702 2.1701,-4.34043 0.7461,-2.20417 0.7461,-4.78133 0,-2.00067 -0.5764,-3.52661 -0.5764,-1.52595 -1.6614,-2.57717 -1.0512,-1.08516 -2.5091,-1.62768 -1.4579,-0.54252 -3.2551,-0.54252 -3.2213,0 -5.8319,1.32256 -2.5768,1.28858 -4.9165,3.32319 l -3.4583,-4.03528 q 1.3563,-1.22075 2.9161,-2.27193 1.5595,-1.08516 3.3567,-1.86509 1.7973,-0.77992 3.7977,-1.22074 2.0004,-0.47481 4.2044,-0.47481 3.2551,0 5.8658,0.91559 2.6449,0.91559 4.4757,2.64501 1.8311,1.69551 2.8141,4.17096 1.0174,2.44146 1.0174,5.52728 0,2.88241 -0.9154,5.49342 -0.8819,2.61103 -2.4752,5.15431 -1.5598,2.50933 -3.7638,5.0526 -2.1701,2.54327 -4.713,5.28998 l -9.528,10.13887 v 0.27166 h 23.3619 z"
      font-feature-settings="normal"
      font-variant-caps="normal"
      font-variant-ligatures="normal"
      font-variant-numeric="normal"
      id="path222"
      fill="#ffffff"
      stroke-width="10.4171"
    />
    <path
      d="m 1451.1566,410.2894 -5.425,-15.36152 h -18.4795 l -5.4928,15.36152 h -6.3745 l 18.2073,-49.78003 h 5.7641 l 18.2416,49.78003 z m -7.4256,-20.95617 -5.0181,-14.37768 q -0.2047,-0.61035 -0.5091,-1.49201 -0.2716,-0.88161 -0.5764,-1.89894 -0.307,-1.01732 -0.6098,-2.10236 -0.3071,-1.11902 -0.5764,-2.1702 -0.2362,1.05118 -0.5421,2.1702 -0.3071,1.11902 -0.6098,2.1702 -0.3071,1.01732 -0.6107,1.89894 -0.2716,0.84775 -0.4748,1.42425 l -4.9164,14.37768 z"
      font-feature-settings="normal"
      font-variant-caps="normal"
      font-variant-ligatures="normal"
      font-variant-numeric="normal"
      id="path224"
      fill="#ffffff"
      stroke-width="10.4171"
    />
    <path
      d="m 1220.2587,438.07235 q 3.3567,0 6.2388,0.9496 2.9162,0.91536 5.0521,2.74686 2.1701,1.8311 3.3906,4.54394 1.2204,2.71299 1.2204,6.27343 0,3.86575 -1.1527,6.95155 -1.1528,3.08583 -3.4244,5.22213 -2.2717,2.13622 -5.6285,3.28937 -3.3229,1.1189 -7.6629,1.1189 -1.7291,0 -3.4244,-0.16929 -1.6614,-0.16929 -3.2212,-0.50906 -1.526,-0.30708 -2.9162,-0.81338 -1.3901,-0.50906 -2.509,-1.18701 v -5.83253 q 1.1189,0.78032 2.6106,1.39016 1.526,0.61102 3.187,1.01732 1.6614,0.40709 3.3228,0.6441 1.6953,0.20472 3.1193,0.20472 2.6788,0 4.7808,-0.60984 2.1024,-0.64409 3.5602,-1.96693 1.4579,-1.32244 2.2378,-3.32323 0.7804,-2.00079 0.7804,-4.74749 0,-4.84906 -2.9839,-7.39233 -2.9839,-2.57717 -8.68,-2.57717 -0.9154,0 -2.0004,0.10236 -1.0512,0.0669 -2.1362,0.20473 -1.0512,0.13779 -2.0343,0.30708 -0.9496,0.1378 -1.6614,0.27166 l -3.0516,-1.93268 1.865,-23.33007 h 23.3952 v 5.62898 h -18.0377 l -1.3224,14.20833 q 1.085,-0.20473 2.848,-0.44055 1.7973,-0.23622 4.2383,-0.23622 z"
      font-feature-settings="normal"
      font-variant-caps="normal"
      font-variant-ligatures="normal"
      font-variant-numeric="normal"
      id="path234"
      fill="#ffffff"
      stroke-width="10.4171"
    />
    <path
      d="m 1274.9626,443.68601 q 0,6.00206 -0.8819,10.74974 -0.8477,4.74745 -2.7803,8.03666 -1.8989,3.28938 -4.9165,5.01875 -3.0178,1.72953 -7.3238,1.72953 -4.001,0 -6.9848,-1.72953 -2.95,-1.72953 -4.9163,-5.01875 -1.9327,-3.28937 -2.9162,-8.03666 -0.9496,-4.74737 -0.9496,-10.74974 0,-6.00237 0.8476,-10.74973 0.8819,-4.74745 2.7465,-8.00281 1.8988,-3.28937 4.8825,-5.01863 3.0177,-1.72953 7.2899,-1.72953 4.0349,0 7.0186,1.72953 2.9839,1.69528 4.9504,4.98477 1.9665,3.25552 2.95,8.00273 0.9831,4.74745 0.9831,10.783 z m -25.3959,0 q 0,5.08647 0.509,8.88446 0.5091,3.79804 1.6276,6.34119 1.1189,2.50945 2.9161,3.79804 1.8307,1.25472 4.4418,1.25472 2.6106,0 4.4417,-1.25472 1.8312,-1.25473 2.9839,-3.76418 1.1866,-2.50945 1.6953,-6.30721 0.5421,-3.8319 0.5421,-8.9523 0,-5.08646 -0.5421,-8.88446 -0.5091,-3.79803 -1.6953,-6.30721 -1.1527,-2.50945 -2.9839,-3.76418 -1.8311,-1.25472 -4.4417,-1.25472 -2.611,0 -4.4418,1.25472 -1.7972,1.25473 -2.9161,3.76418 -1.1189,2.50945 -1.6276,6.30721 -0.509,3.79804 -0.509,8.88446 z"
      font-feature-settings="normal"
      font-variant-caps="normal"
      font-variant-ligatures="normal"
      font-variant-numeric="normal"
      id="path236"
      fill="#ffffff"
      stroke-width="10.4171"
    />
    <path
      d="m 1303.4086,418.94776 -18.4452,49.57639 h -6.0693 l 18.4794,-49.57639 z"
      font-feature-settings="normal"
      font-variant-caps="normal"
      font-variant-ligatures="normal"
      font-variant-numeric="normal"
      id="path238"
      fill="#ffffff"
      stroke-width="10.4171"
    />
    <path
      d="m 1307.9752,447.30161 q 0,-3.56064 0.3385,-7.08721 0.3741,-3.52678 1.2548,-6.74812 0.9153,-3.25552 2.4752,-6.03596 1.5598,-2.78071 3.967,-4.8152 2.4075,-2.0685 5.7642,-3.22166 3.3567,-1.187 7.8662,-1.187 0.6441,0 1.424,0.0381 0.7803,0.038 1.5599,0.13385 0.8133,0.0669 1.5259,0.20473 0.7461,0.10236 1.3225,0.27165 v 5.25603 q -1.1866,-0.40708 -2.6788,-0.60984 -1.4917,-0.20472 -2.95,-0.20472 -3.0515,0 -5.3911,0.74606 -2.3055,0.71181 -4.001,2.03465 -1.6953,1.32244 -2.848,3.15354 -1.1189,1.83111 -1.8311,4.06914 -0.7118,2.20434 -1.0512,4.71351 -0.3386,2.50945 -0.4406,5.22213 h 0.4071 q 0.6784,-1.22086 1.6276,-2.27205 0.9831,-1.08504 2.2716,-1.8311 1.2886,-0.78032 2.8823,-1.22087 1.6276,-0.44055 3.628,-0.44055 3.2212,0 5.8319,1.01733 2.611,0.98346 4.4418,2.91614 1.8311,1.93268 2.8141,4.74737 1.0174,2.78071 1.0174,6.37516 0,3.86576 -1.0512,6.95155 -1.0512,3.08583 -3.0177,5.25599 -1.9666,2.13622 -4.7469,3.28937 -2.7804,1.15276 -6.2388,1.15276 -3.3906,0 -6.3744,-1.32244 -2.95,-1.32245 -5.1199,-4.0354 -2.1701,-2.7126 -3.4245,-6.81588 -1.2547,-4.10311 -1.2547,-9.69831 z m 16.1057,16.68403 q 2.0343,0 3.6957,-0.67834 1.6953,-0.71181 2.9162,-2.10237 1.2204,-1.42441 1.8649,-3.56063 0.6784,-2.17008 0.6784,-5.12032 0,-2.37363 -0.5764,-4.23883 -0.5421,-1.89882 -1.6614,-3.22126 -1.1189,-1.32244 -2.8142,-2.03465 -1.6614,-0.71181 -3.8992,-0.71181 -2.2717,0 -4.1706,0.81339 -1.8649,0.78031 -3.187,2.0685 -1.3224,1.25473 -2.0681,2.88229 -0.7118,1.62756 -0.7118,3.25552 0,2.27205 0.6106,4.54394 0.6441,2.23819 1.865,4.03528 1.2547,1.79724 3.1193,2.95 1.8649,1.1189 4.3399,1.1189 z"
      font-feature-settings="normal"
      font-variant-caps="normal"
      font-variant-ligatures="normal"
      font-variant-numeric="normal"
      id="path240"
      fill="#ffffff"
      stroke-width="10.4171"
    />
    <path
      d="m 1377.4253,443.68601 q 0,6.00206 -0.8819,10.74974 -0.8476,4.74745 -2.7803,8.03666 -1.8988,3.28938 -4.9165,5.01875 -3.0177,1.72953 -7.3238,1.72953 -4.001,0 -6.9848,-1.72953 -2.95,-1.72953 -4.9164,-5.01875 -1.9326,-3.28937 -2.9157,-8.03666 -0.9496,-4.74737 -0.9496,-10.74974 0,-6.00237 0.8476,-10.74973 0.8819,-4.74745 2.7465,-8.00281 1.8988,-3.28937 4.8825,-5.01863 3.0177,-1.72953 7.2899,-1.72953 4.0349,0 7.0187,1.72953 2.9838,1.69528 4.9502,4.98477 1.9665,3.25552 2.95,8.00273 0.9831,4.74745 0.9831,10.783 z m -25.3959,0 q 0,5.08647 0.509,8.88446 0.5091,3.79804 1.6276,6.34119 1.1189,2.50945 2.9157,3.79804 1.8311,1.25472 4.4418,1.25472 2.6106,0 4.4418,-1.25472 1.8311,-1.25473 2.9838,-3.76418 1.1867,-2.50945 1.6953,-6.30721 0.5421,-3.8319 0.5421,-8.9523 0,-5.08646 -0.5421,-8.88446 -0.509,-3.79803 -1.6953,-6.30721 -1.1527,-2.50945 -2.9838,-3.76418 -1.8311,-1.25472 -4.4418,-1.25472 -2.611,0 -4.4418,1.25472 -1.7968,1.25473 -2.9157,3.76418 -1.1189,2.50945 -1.6276,6.30721 -0.509,3.79804 -0.509,8.88446 z"
      font-feature-settings="normal"
      font-variant-caps="normal"
      font-variant-ligatures="normal"
      font-variant-numeric="normal"
      id="path242"
      fill="#ffffff"
      stroke-width="10.4171"
    />
    <path
      d="m 1422.6154,468.51939 h -6.3066 v -23.12645 h -22.5818 v 23.12645 h -6.3066 v -49.5764 h 6.3066 v 20.88861 h 22.5818 v -20.88861 h 6.3066 z"
      font-feature-settings="normal"
      font-variant-caps="normal"
      font-variant-ligatures="normal"
      font-variant-numeric="normal"
      id="path244"
      fill="#ffffff"
      stroke-width="10.4171"
    />
    <path
      d="m 1457.1502,468.51939 h -25.0572 v -4.23871 l 18.174,-28.34905 h -17.0552 v -4.64567 h 23.3276 v 4.95079 l -17.7668,27.63645 h 18.3776 z"
      font-feature-settings="normal"
      font-variant-caps="normal"
      font-variant-ligatures="normal"
      font-variant-numeric="normal"
      id="path246"
      fill="#ffffff"
      stroke-width="10.4171"
    />
    <path
      d="m 1347.9328,537.669 h -5.9676 v -30.95929 q 0,-1.45827 0,-3.11969 0.038,-1.66142 0.067,-3.28937 0.067,-1.66142 0.1024,-3.15355 0.067,-1.52598 0.1023,-2.67874 -0.5764,0.60984 -1.0173,1.05118 -0.4406,0.44055 -0.9154,0.84764 -0.4405,0.40709 -0.9496,0.88189 -0.509,0.44055 -1.2208,1.05118 l -5.0182,4.10312 -3.2552,-4.17099 12.9863,-10.13864 h 5.0851 z"
      font-feature-settings="normal"
      font-variant-caps="normal"
      font-variant-ligatures="normal"
      font-variant-numeric="normal"
      id="path256"
      fill="#ffffff"
      stroke-width="10.417"
    />
    <path
      d="m 1367.0553,533.95833 q 0,-1.28859 0.3386,-2.17008 0.3386,-0.91536 0.9154,-1.45827 0.5763,-0.57638 1.3563,-0.81339 0.7799,-0.27165 1.6952,-0.27165 0.8819,0 1.6615,0.27165 0.8133,0.23622 1.3901,0.81339 0.5764,0.54252 0.9154,1.45827 0.3386,0.88189 0.3386,2.17008 0,1.25472 -0.3386,2.17008 -0.3386,0.88189 -0.9154,1.45827 -0.5764,0.57677 -1.3901,0.84764 -0.7804,0.27165 -1.6615,0.27165 -0.9153,0 -1.6952,-0.27165 -0.7804,-0.27166 -1.3563,-0.84764 -0.5764,-0.57638 -0.9154,-1.45827 -0.3386,-0.91536 -0.3386,-2.17008 z"
      font-feature-settings="normal"
      font-variant-caps="normal"
      font-variant-ligatures="normal"
      font-variant-numeric="normal"
      id="path258"
      fill="#ffffff"
      stroke-width="10.417"
    />
    <path
      d="m 1415.5753,512.8361 q 0,6.00205 -0.8819,10.7495 -0.8477,4.74737 -2.7804,8.03662 -1.8988,3.28938 -4.9165,5.01875 -3.0177,1.72913 -7.3239,1.72913 -4.001,0 -6.9849,-1.72913 -2.95,-1.72953 -4.9165,-5.01875 -1.9326,-3.28937 -2.9161,-8.03662 -0.9496,-4.74737 -0.9496,-10.7495 0,-6.00214 0.8476,-10.7495 0.8819,-4.74745 2.7465,-8.00277 1.8988,-3.28937 4.8826,-5.01871 3.0178,-1.72953 7.29,-1.72953 4.035,0 7.0188,1.72953 2.9838,1.69567 4.9504,4.98477 1.9665,3.25552 2.95,8.00273 0.9831,4.74737 0.9831,10.78375 z m -25.3959,0 q 0,5.08646 0.509,8.88438 0.5091,3.79803 1.6276,6.34115 1.1189,2.50945 2.9157,3.79803 1.8311,1.25473 4.4419,1.25473 2.6106,0 4.4418,-1.25473 1.8308,-1.25472 2.9839,-3.76417 1.1866,-2.50946 1.6953,-6.30726 0.5421,-3.83189 0.5421,-8.95221 0,-5.08646 -0.5421,-8.88438 -0.5091,-3.79804 -1.6953,-6.30725 -1.1528,-2.50946 -2.9839,-3.76418 -1.8311,-1.25473 -4.4418,-1.25473 -2.611,0 -4.4419,1.25473 -1.7968,1.25472 -2.9157,3.76418 -1.1189,2.50945 -1.6276,6.30725 -0.509,3.79803 -0.509,8.88438 z"
      font-feature-settings="normal"
      font-variant-caps="normal"
      font-variant-ligatures="normal"
      font-variant-numeric="normal"
      id="path260"
      fill="#ffffff"
      stroke-width="10.417"
    />
    <path
      d="m 1454.5815,537.669 -5.4252,-15.3612 h -18.4795 l -5.4929,15.3612 h -6.3745 l 18.2082,-49.77998 h 5.7642 l 18.2416,49.77998 z m -7.4257,-20.95668 -5.0183,-14.37738 q -0.2047,-0.61102 -0.509,-1.49212 -0.2717,-0.8819 -0.5764,-1.89883 -0.3071,-1.01732 -0.6098,-2.10236 -0.3071,-1.11929 -0.5764,-2.17008 -0.2362,1.05118 -0.5421,2.17008 -0.3071,1.1189 -0.6099,2.17008 -0.3071,1.01732 -0.6098,1.89882 -0.2717,0.84764 -0.4748,1.42441 l -4.9168,14.37738 z"
      font-feature-settings="normal"
      font-variant-caps="normal"
      font-variant-ligatures="normal"
      font-variant-numeric="normal"
      id="path262"
      fill="#ffffff"
      stroke-width="10.417"
    />
    <path
      d="m 1542.9639,454.51209 h -13.1223 v -5.08646 h 13.1223 v -13.19092 h 5.0861 v 13.19092 h 13.1223 v 5.08646 H 1548.05 v 13.0549 h -5.0861 z"
      font-feature-settings="normal"
      font-variant-caps="normal"
      font-variant-ligatures="normal"
      font-variant-numeric="normal"
      id="path272"
      fill="#ffffff"
      stroke-width="10.417"
    />
    <path
      d="m 1597.2872,426.82485 h 6.7136 l -16.5806,49.57636 h -6.3406 l -16.5129,-49.57636 h 6.6797 l 10.0027,31.43406 q 0.9831,3.08583 1.6953,5.96819 0.7118,2.84843 1.2885,5.35772 0.5091,-2.50945 1.2886,-5.35772 0.7803,-2.88229 1.8311,-6.1717 z"
      font-feature-settings="normal"
      font-variant-caps="normal"
      font-variant-ligatures="normal"
      font-variant-numeric="normal"
      id="path274"
      fill="#ffffff"
      stroke-width="10.417"
    />
    <path
      d="m 1638.2913,457.74705 q 0,4.64564 -1.1527,8.27399 -1.1189,3.59449 -3.2552,6.06989 -2.1023,2.44174 -5.1199,3.72993 -3.0177,1.28858 -6.7814,1.28858 -3.4925,0 -6.4423,-1.28858 -2.9501,-1.28859 -5.1199,-3.72993 -2.1363,-2.47559 -3.3567,-6.06989 -1.1866,-3.62835 -1.1866,-8.27399 0,-4.61169 1.1188,-8.17221 1.1528,-3.59449 3.2552,-6.03603 2.1019,-2.47559 5.1199,-3.72993 3.0515,-1.28858 6.8153,-1.28858 3.4925,0 6.4423,1.28858 2.95,1.25473 5.086,3.72993 2.1701,2.44173 3.3567,6.03603 1.2209,3.56063 1.2209,8.17221 z m -26.0409,0 q 0,7.08718 2.3059,10.68195 2.3394,3.56063 7.5612,3.56063 5.2217,0 7.4934,-3.56063 2.3056,-3.5945 2.3056,-10.68195 0,-7.08748 -2.3398,-10.58017 -2.3055,-3.52677 -7.5274,-3.52677 -5.2217,0 -7.5273,3.52677 -2.2717,3.49253 -2.2716,10.58017 z"
      font-feature-settings="normal"
      font-variant-caps="normal"
      font-variant-ligatures="normal"
      font-variant-numeric="normal"
      id="path276"
      fill="#ffffff"
      stroke-width="10.417"
    />
    <path
      d="m 1531.928,792.2775 v -5.6969 h 16.8183 v 5.6969 z"
      font-feature-settings="normal"
      font-variant-caps="normal"
      font-variant-ligatures="normal"
      font-variant-numeric="normal"
      id="path286"
      fill="#ffffff"
      stroke-width="10.417"
    />
    <path
      d="m 1584.2534,758.50096 h 6.7136 l -16.5806,49.57636 h -6.3406 l -16.5129,-49.57636 h 6.6797 l 10.0027,31.43406 q 0.9834,3.08583 1.6953,5.96807 0.7114,2.84843 1.2885,5.35784 0.5091,-2.50945 1.2886,-5.35784 0.7803,-2.88228 1.8311,-6.17158 z"
      font-feature-settings="normal"
      font-variant-caps="normal"
      font-variant-ligatures="normal"
      font-variant-numeric="normal"
      id="path288"
      fill="#ffffff"
      stroke-width="10.417"
    />
    <path
      d="m 1625.1624,789.32801 q 0,4.64563 -1.1528,8.27402 -1.1189,3.5945 -3.2551,6.06985 -2.1024,2.44174 -5.12,3.72993 -3.0177,1.28858 -6.7814,1.28858 -3.4925,0 -6.4423,-1.28858 -2.95,-1.28859 -5.12,-3.72993 -2.1362,-2.4752 -3.3567,-6.06985 -1.1866,-3.62835 -1.1866,-8.27402 0,-4.6117 1.1189,-8.1723 1.1528,-3.59449 3.2551,-6.03591 2.1024,-2.47559 5.12,-3.72993 3.0516,-1.28858 6.8153,-1.28858 3.4925,0 6.4424,1.28858 2.95,1.25473 5.086,3.72993 2.1701,2.44134 3.3567,6.03591 1.2205,3.56064 1.2205,8.1723 z m -26.041,0 q 0,7.08717 2.3055,10.68194 2.3398,3.56063 7.5612,3.56063 5.2217,0 7.4935,-3.56063 2.3056,-3.59449 2.3056,-10.68194 0,-7.08745 -2.3394,-10.58013 -2.3059,-3.52678 -7.5273,-3.52678 -5.2217,0 -7.5275,3.52678 -2.2717,3.49252 -2.2717,10.58013 z"
      font-feature-settings="normal"
      font-variant-caps="normal"
      font-variant-ligatures="normal"
      font-variant-numeric="normal"
      id="path290"
      fill="#ffffff"
      stroke-width="10.417"
    />
    <path
      d="m 997.92322,886.47123 -15.0212,-43.40426 h -0.27166 q 0.20473,2.50906 0.33859,4.98473 0.13779,2.13622 0.20472,4.50997 0.10236,2.33976 0.10236,4.27268 v 29.63775 h -5.83201 v -49.57636 h 9.35836 l 13.96992,40.42052 h 0.2047 l 14.0375,-40.42052 h 9.3584 v 49.57636 h -6.3089 v -30.07826 q 0,-1.76339 0.067,-4.03521 0.067,-2.27205 0.1692,-4.34051 0.1378,-2.40749 0.2363,-4.88304 h -0.2717 l -15.1563,43.33671 z"
      font-feature-settings="normal"
      font-variant-caps="normal"
      font-variant-ligatures="normal"
      font-variant-numeric="normal"
      id="path300"
      fill="#ffffff"
      stroke-width="10.417"
    />
    <path
      d="m 1066.9928,886.47123 -5.4252,-15.36119 h -18.4794 l -5.493,15.36119 h -6.3745 l 18.2083,-49.77994 h 5.7642 l 18.2416,49.77994 z m -7.4257,-20.95667 -5.0183,-14.37738 q -0.2047,-0.60985 -0.509,-1.49213 -0.2717,-0.88189 -0.5764,-1.89882 -0.3071,-1.01733 -0.6098,-2.10237 -0.3071,-1.1189 -0.5764,-2.17047 -0.2362,1.05118 -0.5421,2.17047 -0.3071,1.1189 -0.6099,2.17008 -0.3071,1.01733 -0.6106,1.89883 -0.2717,0.84763 -0.4748,1.42441 l -4.9165,14.37738 z"
      font-feature-settings="normal"
      font-variant-caps="normal"
      font-variant-ligatures="normal"
      font-variant-numeric="normal"
      id="path302"
      fill="#ffffff"
      stroke-width="10.417"
    />
    <path
      d="m 1116.6544,861.16262 q 0,6.27339 -1.6276,11.02064 -1.6275,4.71351 -4.7131,7.90108 -3.0854,3.15354 -7.5952,4.74737 -4.4757,1.5937 -10.172,1.5937 h -12.4097 v -49.57636 h 13.8006 q 5.1877,0 9.3922,1.55984 4.2045,1.55985 7.1544,4.64568 2.95,3.05197 4.5436,7.59579 1.6275,4.54395 1.6275,10.51167 z m -6.6797,0.20473 q 0,-4.95092 -1.1189,-8.54529 -1.1189,-3.62835 -3.2551,-5.9682 -2.1363,-2.33976 -5.2556,-3.45866 -3.1193,-1.15315 -7.0866,-1.15315 h -6.8153 v 38.7593 h 5.4929 q 8.9515,0 13.4952,-4.9508 4.5436,-4.95087 4.5436,-14.68277 z"
      font-feature-settings="normal"
      font-variant-caps="normal"
      font-variant-ligatures="normal"
      font-variant-numeric="normal"
      id="path304"
      fill="#ffffff"
      stroke-width="10.417"
    />
    <path
      d="m 1153.3773,886.47123 h -25.7355 v -49.57635 h 25.7355 v 5.56122 h -19.4289 v 15.32695 h 18.1408 v 5.49339 h -18.1408 v 17.63325 h 19.4289 z"
      font-feature-settings="normal"
      font-variant-caps="normal"
      font-variant-ligatures="normal"
      font-variant-numeric="normal"
      id="path306"
      fill="#ffffff"
      stroke-width="10.417"
    />
    <path
      d="m 1196.2842,886.47123 h -17.9705 v -3.45866 l 5.832,-1.39055 v -39.8782 l -5.832,-1.39055 v -3.45867 h 17.9705 v 3.45867 l -5.8321,1.39055 v 39.8782 l 5.8321,1.39055 z"
      font-feature-settings="normal"
      font-variant-caps="normal"
      font-variant-ligatures="normal"
      font-variant-numeric="normal"
      id="path308"
      fill="#ffffff"
      stroke-width="10.417"
    />
    <path
      d="m 1242.9965,886.47123 h -7.29 l -24.3789,-41.03134 h -0.2716 q 0.2047,2.61102 0.3385,5.18815 0.1378,2.20394 0.2048,4.61178 0.1023,2.40748 0.1023,4.34044 v 26.8909 h -5.8331 V 836.8948 h 7.2222 l 24.2771,40.82772 h 0.2362 q -0.1023,-2.57717 -0.2362,-5.08646 -0.038,-1.08504 -0.1024,-2.20394 -0.038,-1.15315 -0.1023,-2.27205 -0.038,-1.15276 -0.067,-2.20394 0,-1.05118 0,-1.93307 v -27.12783 h 5.8999 z"
      font-feature-settings="normal"
      font-variant-caps="normal"
      font-variant-ligatures="normal"
      font-variant-numeric="normal"
      id="path310"
      fill="#ffffff"
      stroke-width="10.417"
    />
    <path
      d="m 1294.656,841.75299 q -3.628,0 -6.578,1.39016 -2.95,1.3563 -5.0522,3.93347 -2.0681,2.57717 -3.2212,6.27328 -1.1189,3.69606 -1.1189,8.34186 0,4.78134 0.9831,8.51142 1.0173,3.69607 3.0177,6.23942 2.0004,2.54331 4.9843,3.86575 2.9839,1.32245 6.9849,1.32245 3.0177,0 5.7303,-0.57638 2.7126,-0.61103 5.3572,-1.39016 v 5.49339 q -1.3224,0.50906 -2.6445,0.91536 -1.3224,0.37401 -2.7803,0.61102 -1.424,0.23622 -3.0854,0.33858 -1.6276,0.1378 -3.628,0.1378 -5.5606,0 -9.6297,-1.83111 -4.0689,-1.8311 -6.7476,-5.18815 -2.6445,-3.35709 -3.933,-8.0706 -1.2886,-4.71351 -1.2886,-10.44411 0,-5.62894 1.4578,-10.30895 1.4922,-4.67953 4.3401,-8.03662 2.8823,-3.35709 7.1205,-5.22217 4.2384,-1.86497 9.7316,-1.86497 3.6618,0 6.9849,0.74607 3.3229,0.74606 6.0015,2.17008 l -2.6449,5.28989 q -2.1362,-1.08504 -4.6452,-1.86497 -2.5091,-0.78031 -5.6963,-0.78031 z"
      font-feature-settings="normal"
      font-variant-caps="normal"
      font-variant-ligatures="normal"
      font-variant-numeric="normal"
      id="path312"
      fill="#ffffff"
      stroke-width="10.417"
    />
    <path
      d="m 1351.6431,886.47123 h -6.3067 v -23.12695 h -22.5818 v 23.12695 h -6.3067 v -49.57635 h 6.3067 v 20.88817 h 22.5818 v -20.88817 h 6.3067 z"
      font-feature-settings="normal"
      font-variant-caps="normal"
      font-variant-ligatures="normal"
      font-variant-numeric="normal"
      id="path314"
      fill="#ffffff"
      stroke-width="10.417"
    />
    <path
      d="m 1379.1377,886.47123 h -17.9704 v -3.45866 l 5.832,-1.39055 v -39.8782 l -5.832,-1.39055 v -3.45867 h 17.9704 v 3.45867 l -5.8319,1.39055 v 39.8782 l 5.8319,1.39055 z"
      font-feature-settings="normal"
      font-variant-caps="normal"
      font-variant-ligatures="normal"
      font-variant-numeric="normal"
      id="path316"
      fill="#ffffff"
      stroke-width="10.417"
    />
    <path
      d="m 1425.8501,886.47123 h -7.2901 l -24.3789,-41.03134 h -0.2717 q 0.2048,2.61102 0.3386,5.18815 0.1378,2.20394 0.2048,4.61178 0.1023,2.40748 0.1023,4.34044 v 26.8909 h -5.832 V 836.8948 h 7.2222 l 24.277,40.82772 h 0.2363 q -0.1024,-2.57717 -0.2363,-5.08646 -0.038,-1.08504 -0.1023,-2.20394 -0.038,-1.15315 -0.1024,-2.27205 -0.038,-1.15276 -0.067,-2.20394 0,-1.05118 0,-1.93307 v -27.12783 h 5.8998 z"
      font-feature-settings="normal"
      font-variant-caps="normal"
      font-variant-ligatures="normal"
      font-variant-numeric="normal"
      id="path318"
      fill="#ffffff"
      stroke-width="10.417"
    />
    <path
      d="m 1468.2812,886.47123 -5.4251,-15.36119 h -18.4794 l -5.493,15.36119 h -6.3745 l 18.2083,-49.77994 h 5.7641 l 18.2416,49.77994 z m -7.4256,-20.95667 -5.0183,-14.37738 q -0.2047,-0.60985 -0.509,-1.49213 -0.2717,-0.88189 -0.5764,-1.89882 -0.3071,-1.01733 -0.6107,-2.10237 -0.307,-1.1189 -0.5763,-2.17047 -0.2363,1.05118 -0.5422,2.17047 -0.307,1.1189 -0.6106,2.17008 -0.3071,1.01733 -0.6098,1.89883 -0.2717,0.84763 -0.4748,1.42441 l -4.9165,14.37738 z"
      font-feature-settings="normal"
      font-variant-caps="normal"
      font-variant-ligatures="normal"
      font-variant-numeric="normal"
      id="path320"
      fill="#ffffff"
      stroke-width="10.417"
    />
    <path
      d="m 745.23897,889.32561 -15.0212,-43.40431 h -0.27165 q 0.20472,2.50946 0.33858,4.98477 0.1378,2.13623 0.20473,4.50997 0.10236,2.33977 0.10236,4.27268 v 29.63772 h -5.83308 v -49.57632 h 9.35828 l 13.96994,40.42052 h 0.20472 l 14.0375,-40.42052 h 9.35824 v 49.57632 h -6.30662 v -30.07823 q 0,-1.76339 0.0669,-4.0352 0.0669,-2.27205 0.16929,-4.34052 0.1378,-2.40748 0.23622,-4.88308 h -0.27165 l -15.15632,43.33675 z"
      font-feature-settings="normal"
      font-variant-caps="normal"
      font-variant-ligatures="normal"
      font-variant-numeric="normal"
      id="path330"
      fill="#ffffff"
      stroke-width="10.417"
    />
    <path
      d="m 805.93649,839.75496 h 6.67965 l 7.76473,29.02688 q 0.50906,1.89882 0.98347,3.79804 0.50906,1.89882 0.91536,3.69607 0.44055,1.76338 0.74606,3.35709 0.33858,1.5937 0.54213,2.88228 0.13779,-1.28858 0.33858,-2.81457 0.20472,-1.52598 0.4748,-3.1874 0.27166,-1.69567 0.57638,-3.42481 0.33859,-1.76339 0.7126,-3.42481 l 6.78139,-29.90885 h 6.74753 l -12.44396,49.57632 h -6.37457 l -8.61237,-31.80701 q -0.47481,-1.72953 -0.91536,-3.56063 -0.44055,-1.83111 -0.81339,-3.42481 -0.40708,-1.86496 -0.78031,-3.62835 -0.37402,1.72953 -0.74567,3.59449 -0.33859,1.5937 -0.78032,3.49253 -0.40709,1.89882 -0.88189,3.72992 l -8.20548,31.60441 h -6.37458 l -13.088,-49.57636 h 6.67965 l 7.56135,30.14579 q 0.40708,1.55984 0.74567,3.25551 0.33858,1.66142 0.60984,3.32323 0.30709,1.66142 0.54213,3.22166 0.23622,1.52599 0.40708,2.81457 0.1693,-1.25472 0.40709,-2.91614 0.27166,-1.66142 0.60984,-3.49253 0.33859,-1.8311 0.7126,-3.69607 0.40709,-1.89882 0.84764,-3.56063 z"
      font-feature-settings="normal"
      font-variant-caps="normal"
      font-variant-ligatures="normal"
      font-variant-numeric="normal"
      id="path332"
      fill="#ffffff"
      stroke-width="10.417"
    />
    <path
      d="m 874.9109,864.4927 q 0,6.00206 -0.88189,10.74951 -0.84764,4.74736 -2.78032,8.03662 -1.89882,3.28937 -4.9165,5.01863 -3.01772,1.72953 -7.32395,1.72953 -4.0011,0 -6.98489,-1.72953 -2.95,-1.72953 -4.9165,-5.01863 -1.93268,-3.28937 -2.91614,-8.03662 -0.94961,-4.74745 -0.94961,-10.74951 0,-6.00205 0.84764,-10.7495 0.88189,-4.74736 2.74646,-8.00276 1.89882,-3.28938 4.8826,-5.01863 3.01772,-1.72953 7.28997,-1.72953 4.03497,0 7.01875,1.72953 2.98386,1.69567 4.95048,4.98477 1.96654,3.25512 2.95,8.00265 0.98307,4.74744 0.98307,10.78375 z m -25.3959,0 q 0,5.08647 0.50906,8.88439 0.50906,3.79803 1.62756,6.34122 1.1189,2.50946 2.91575,3.79765 1.83111,1.25472 4.44186,1.25472 2.61103,0 4.44178,-1.25472 1.8311,-1.25473 2.98386,-3.76379 1.18661,-2.50945 1.69528,-6.30725 0.54212,-3.83189 0.54212,-8.95222 0,-5.08646 -0.54212,-8.88438 -0.50906,-3.79803 -1.69528,-6.30725 -1.15276,-2.50945 -2.98386,-3.76378 -1.83072,-1.25473 -4.44178,-1.25473 -2.61063,0 -4.44186,1.25473 -1.79685,1.25472 -2.91575,3.76378 -1.1189,2.50945 -1.62756,6.30725 -0.50906,3.79804 -0.50906,8.88438 z"
      font-feature-settings="normal"
      font-variant-caps="normal"
      font-variant-ligatures="normal"
      font-variant-numeric="normal"
      id="path334"
      fill="#ffffff"
      stroke-width="10.417"
    />
    <path
      d="m 912.2998,889.32561 h -30.92338 v -5.29001 l 11.86742,-12.91974 q 2.54291,-2.74685 4.54355,-5.01874 2.00039,-2.27205 3.39055,-4.44214 1.42402,-2.17008 2.17008,-4.34051 0.74607,-2.20394 0.74607,-4.78123 0,-2.00079 -0.57638,-3.52678 -0.57638,-1.52598 -1.66142,-2.57716 -1.05118,-1.08504 -2.50906,-1.62756 -1.45788,-0.54213 -3.25512,-0.54213 -3.22127,0 -5.8321,1.32244 -2.57677,1.28859 -4.9165,3.32323 L 881.88485,844.87 q 1.3563,-1.22086 2.91614,-2.27205 1.55985,-1.08504 3.3567,-1.86496 1.79725,-0.78032 3.79764,-1.22087 2.0004,-0.4748 4.20438,-0.4748 3.25512,0 5.86595,0.91535 2.64488,0.91536 4.47575,2.64489 1.83111,1.69528 2.81418,4.17095 1.01732,2.44134 1.01732,5.52729 0,2.88229 -0.91535,5.49339 -0.88189,2.61103 -2.4752,5.1543 -1.55985,2.50945 -3.76379,5.0526 -2.17008,2.54331 -4.71299,5.28997 l -9.52797,10.13867 v 0.27166 h 23.36188 z"
      font-feature-settings="normal"
      font-variant-caps="normal"
      font-variant-ligatures="normal"
      font-variant-numeric="normal"
      id="path336"
      fill="#ffffff"
      stroke-width="10.417"
    />
    <ellipse
      cx="200.89156"
      gorn="0.1.0.0.0.0.0.0.0.1.0.0.0.6"
      stroke-width="9.51426"
      fill="none"
      stroke="#ffffff"
      cy="846.77606"
      id="connector0pin"
      rx="17.776764"
      ry="18.143396"
    />
    <ellipse
      cx="204.28191"
      gorn="0.1.0.0.0.0.0.0.0.1.0.0.0.5"
      stroke-width="9.51426"
      fill="none"
      stroke="#ffffff"
      cy="433.94547"
      id="connector1pin"
      rx="17.776764"
      ry="18.143396"
    />
    <ellipse
      cx="1590.843"
      gorn="0.1.0.0.0.0.0.0.0.1.0.0.0.3"
      stroke-width="9.51426"
      fill="none"
      stroke="#ffffff"
      cy="847.73718"
      id="connector2pin"
      rx="17.776764"
      ry="18.143396"
    />
    <ellipse
      cx="1593.3861"
      gorn="0.1.0.0.0.0.0.0.0.1.0.0.0.4"
      stroke-width="9.51426"
      fill="none"
      stroke="#ffffff"
      cy="526.98853"
      id="connector3pin"
      rx="17.776764"
      ry="18.143396"
    />
  </g>
</svg>
