<?xml version="1.0" encoding="utf-8"?>
<!-- Generator: Adobe Illustrator 26.3.1, SVG Export Plug-In . SVG Version: 6.00 Build 0)  -->
<svg version="1.2" baseProfile="tiny" id="Ebene_1" xmlns:svg="http://www.w3.org/2000/svg"
	 xmlns="http://www.w3.org/2000/svg" xmlns:xlink="http://www.w3.org/1999/xlink" x="0px" y="0px" width="0.5118in" height="1.1417in" viewBox="0 0 36.85 82.202" overflow="visible" xml:space="preserve">
<g id="silkscreen">
	<text transform="matrix(1 0 0 1 2.5664 71.7357)" font-family="'OCRAStd'" font-size="5.9998px">A1</text>
	<text transform="matrix(1 0 0 1 24.9463 71.7357)" font-family="'OCRAStd'" font-size="5.9998px">A2</text>
	<text transform="matrix(1 0 0 1 12.9116 7.5667)" font-family="'OCRAStd'" font-size="5.9998px">14</text>
	<text transform="matrix(1 0 0 1 13.5894 21.8529)" font-family="'OCRAStd'" font-size="5.9998px">11</text>
	<text transform="matrix(1 0 0 1 14.2671 36.1385)" font-family="'OCRAStd'" font-size="5.9998px">12</text>
	<rect x="0" y="0" fill="none" width="36.849" height="82.202"/>
</g>
<g id="copper0">
	<g id="copper1">
		
			<circle id="connector7pin" fill="none" stroke="#FFBF00" stroke-width="1.44" stroke-miterlimit="9.9997" cx="29.208" cy="4.732" r="2.835"/>
		
			<circle id="connector6pin" fill="none" stroke="#FFBF00" stroke-width="1.44" stroke-miterlimit="9.9997" cx="6.532" cy="4.732" r="2.835"/>
		
			<circle id="connector5pin" fill="none" stroke="#FFBF00" stroke-width="1.44" stroke-miterlimit="9.9997" cx="29.208" cy="19.018" r="2.835"/>
		
			<circle id="connector4pin" fill="none" stroke="#FFBF00" stroke-width="1.44" stroke-miterlimit="9.9997" cx="6.532" cy="19.018" r="2.835"/>
		
			<circle id="connector3pin" fill="none" stroke="#FFBF00" stroke-width="1.44" stroke-miterlimit="9.9997" cx="29.208" cy="33.304" r="2.835"/>
		
			<circle id="connector2pin" fill="none" stroke="#FFBF00" stroke-width="1.44" stroke-miterlimit="9.9997" cx="6.532" cy="33.304" r="2.835"/>
		
			<circle id="connector1pin" fill="none" stroke="#FFBF00" stroke-width="1.44" stroke-miterlimit="9.9997" cx="29.208" cy="76.56" r="2.835"/>
		
			<circle id="connector0pin" fill="none" stroke="#FFBF00" stroke-width="1.44" stroke-miterlimit="9.9997" cx="6.532" cy="76.56" r="2.835"/>
	</g>
</g>
<g id="keepout">
</g>
<g id="outline">
	<rect x="0" y="0" fill="none" width="36.849" height="82.202"/>
</g>
<g id="soldermask">
</g>
</svg>
